<svg width="1090" height="522" viewBox="0 0 1090 522" fill="none" xmlns="http://www.w3.org/2000/svg" xmlns:c2pa="http://c2pa.org/manifest"><metadata><c2pa:manifest>AAAWgmp1bWIAAAAeanVtZGMycGEAEQAQgAAAqgA4m3EDYzJwYQAAABZcanVtYgAAAEdqdW1kYzJtYQARABCAAACqADibcQN1cm46YzJwYTo2YTRhNGY2ZC05MDUzLTRmN2YtOWJlNS1lMDcxODExYTRjZGQAAAADl2p1bWIAAAApanVtZGMyYXMAEQAQgAAAqgA4m3EDYzJwYS5hc3NlcnRpb25zAAAAALxqdW1iAAAARGp1bWRjYm9yABEAEIAAAKoAOJtxE2MycGEuaW5ncmVkaWVudC52MwAAAAAYYzJzaJI1du4RqIfy1/LetdkDH/UAAABwY2JvcqNpZGM6Zm9ybWF0bWltYWdlL3N2Zyt4bWxqaW5zdGFuY2VJRHgseG1wOmlpZDpmOGYwNjE1Yi01ZTg2LTRlYzktYjVlNi05OGJmMzdiOTVjMjdscmVsYXRpb25zaGlwaHBhcmVudE9mAAAB4mp1bWIAAABBanVtZGNib3IAEQAQgAAAqgA4m3ETYzJwYS5hY3Rpb25zLnYyAAAAABhjMnNo4VoH0bjSi989zO4OVUoMbAAAAZljYm9yomdhY3Rpb25zgqJmYWN0aW9ua2MycGEub3BlbmVkanBhcmFtZXRlcnOha2luZ3JlZGllbnRzgaJjdXJseC1zZWxmI2p1bWJmPWMycGEuYXNzZXJ0aW9ucy9jMnBhLmluZ3JlZGllbnQudjNkaGFzaFggHe8twCG8GzpLB8P5FKQ5JolNE5aGiDeMOB16gXhgf72kZmFjdGlvbngdY29tLmFudGhyb3BpYy5jbGF1ZGUucHJvdmlkZWRqcGFyYW1ldGVyc6F4H2NvbS5hbnRocm9waWMub3JpZ2luLWNvbmZpZGVuY2VndW5rbm93bmtkZXNjcmlwdGlvbnhmQ2xhdWRlIHByb3ZpZGVkIHRoaXMgZmlsZSBhdCB0aGUgcmVxdWVzdCBvZiBhIHVzZXIgYW5kIG1heSBoYXZlIGNyZWF0ZWQgb3IgbW9kaWZpZWQgdGhlIGZpbGUgY29udGVudHMubXNvZnR3YXJlQWdlbnShZG5hbWVmQ2xhdWRlcmFsbEFjdGlvbnNJbmNsdWRlZPUAAADIanVtYgAAAEBqdW1kY2JvcgARABCAAACqADibcRNjMnBhLmhhc2guZGF0YQAAAAAYYzJzaKItd3nVsW2nj8+R4q1ZrgkAAACAY2JvcqVjYWxnZnNoYTI1NmNwYWRNAAAAAAAAAAAAAAAAAGRoYXNoWCCe02zDne8NqibV416EmHf8AGc+GnQdN3N1h5+RxdbLOmRuYW1lbmp1bWJmIG1hbmlmZXN0amV4Y2x1c2lvbnOBomVzdGFydBikZmxlbmd0aBkeBAAAAj5qdW1iAAAAJ2p1bWRjMmNsABEAEIAAAKoAOJtxA2MycGEuY2xhaW0udjIAAAACD2Nib3KlY2FsZ2ZzaGEyNTZpc2lnbmF0dXJleE1zZWxmI2p1bWJmPS9jMnBhL3VybjpjMnBhOjZhNGE0ZjZkLTkwNTMtNGY3Zi05YmU1LWUwNzE4MTFhNGNkZC9jMnBhLnNpZ25hdHVyZWppbnN0YW5jZUlEeCx4bXA6aWlkOjg0NmZkNThhLWJhZTYtNGMyNy1hNGQ3LWU2MjM0MGRlZjM1NXJjcmVhdGVkX2Fzc2VydGlvbnODomN1cmx4LXNlbGYjanVtYmY9YzJwYS5hc3NlcnRpb25zL2MycGEuaW5ncmVkaWVudC52M2RoYXNoWCAd7y3AIbwbOksHw/kUpDkmiU0TloaIN4w4HXqBeGB/vaJjdXJseCpzZWxmI2p1bWJmPWMycGEuYXNzZXJ0aW9ucy9jMnBhLmFjdGlvbnMudjJkaGFzaFggC1kfLYyR02suJ5fWiNWa0TgPt6PghgFGev0YiwzMttOiY3VybHgpc2VsZiNqdW1iZj1jMnBhLmFzc2VydGlvbnMvYzJwYS5oYXNoLmRhdGFkaGFzaFggs6WnTsBRpEjrthnBtDK5nceLaWi5pVqbMG8LklGCBmh0Y2xhaW1fZ2VuZXJhdG9yX2luZm+jZG5hbWVvQW50aHJvcGljIEZpbGVzZ3ZlcnNpb25lMS4wLjBrc3BlY1ZlcnNpb25lMi40LjAAABA4anVtYgAAAChqdW1kYzJjcwARABCAAACqADibcQNjMnBhLnNpZ25hdHVyZQAAABAIY2JvctKEWQISogEmGCFZAgowggIGMIIBjaADAgECAhRA5aAK7sI50L64g/oGQgU9Z1UTADAKBggqhkjOPQQDAzBJMRcwFQYDVQQKEw5BbnRocm9waWMsIFBCQzEuMCwGA1UEAxMlQW50aHJvcGljIENvbnRlbnQgQ3JlZGVudGlhbHMgUm9vdCBDQTAeFw0yNjA4MDcxODQzNTZaFw0yODA4MDYxOTQzNTZaMEQxFzAVBgNVBAoTDkFudGhyb3BpYywgUEJDMSkwJwYDVQQDEyBBbnRocm9waWMgQ2xhdWRlIENvbnRlbnQgU2lnbmluZzBZMBMGByqGSM49AgEGCCqGSM49AwEHA0IABJh6CmvLUBgFFNU0vUKlOVtE6djd17L5SuwX0LemFisBM3dkd/3cyjxFA3Qo5S46fX0/ihY0VZ7mfb9KF703t5OjWDBWMA4GA1UdDwEB/wQEAwIHgDAVBgNVHSUEDjAMBgorBgEEAYPoXgIBMAwGA1UdEwEB/wQCMAAwHwYDVR0jBBgwFoAUzlHiBIFOZFsj+OPEz5o+nMHXXMIwCgYIKoZIzj0EAwMDZwAwZAIwMXMdFJ4BetLLVY7ORuE9noqbbAZOZn/aArXyTwFAZfKrPzxF2vPoJNf1+UCdg1XGAjBwX1zd9WGqYkqmL5SFqw1QySjr1zJfpJM9+1rdDwSPLMOPOjKuiXjoU/pUUeG9RwmhY3BhZFkNngAAAAAAAAAAAAAAAAAAAAAAAAAAAAAAAAAAAAAAAAAAAAAAAAAAAAAAAAAAAAAAAAAAAAAAAAAAAAAAAAAAAAAAAAAAAAAAAAAAAAAAAAAAAAAAAAAAAAAAAAAAAAAAAAAAAAAAAAAAAAAAAAAAAAAAAAAAAAAAAAAAAAAAAAAAAAAAAAAAAAAAAAAAAAAAAAAAAAAAAAAAAAAAAAAAAAAAAAAAAAAAAAAAAAAAAAAAAAAAAAAAAAAAAAAAAAAAAAAAAAAAAAAAAAAAAAAAAAAAAAAAAAAAAAAAAAAAAAAAAAAAAAAAAAAAAAAAAAAAAAAAAAAAAAAAAAAAAAAAAAAAAAAAAAAAAAAAAAAAAAAAAAAAAAAAAAAAAAAAAAAAAAAAAAAAAAAAAAAAAAAAAAAAAAAAAAAAAAAAAAAAAAAAAAAAAAAAAAAAAAAAAAAAAAAAAAAAAAAAAAAAAAAAAAAAAAAAAAAAAAAAAAAAAAAAAAAAAAAAAAAAAAAAAAAAAAAAAAAAAAAAAAAAAAAAAAAAAAAAAAAAAAAAAAAAAAAAAAAAAAAAAAAAAAAAAAAAAAAAAAAAAAAAAAAAAAAAAAAAAAAAAAAAAAAAAAAAAAAAAAAAAAAAAAAAAAAAAAAAAAAAAAAAAAAAAAAAAAAAAAAAAAAAAAAAAAAAAAAAAAAAAAAAAAAAAAAAAAAAAAAAAAAAAAAAAAAAAAAAAAAAAAAAAAAAAAAAAAAAAAAAAAAAAAAAAAAAAAAAAAAAAAAAAAAAAAAAAAAAAAAAAAAAAAAAAAAAAAAAAAAAAAAAAAAAAAAAAAAAAAAAAAAAAAAAAAAAAAAAAAAAAAAAAAAAAAAAAAAAAAAAAAAAAAAAAAAAAAAAAAAAAAAAAAAAAAAAAAAAAAAAAAAAAAAAAAAAAAAAAAAAAAAAAAAAAAAAAAAAAAAAAAAAAAAAAAAAAAAAAAAAAAAAAAAAAAAAAAAAAAAAAAAAAAAAAAAAAAAAAAAAAAAAAAAAAAAAAAAAAAAAAAAAAAAAAAAAAAAAAAAAAAAAAAAAAAAAAAAAAAAAAAAAAAAAAAAAAAAAAAAAAAAAAAAAAAAAAAAAAAAAAAAAAAAAAAAAAAAAAAAAAAAAAAAAAAAAAAAAAAAAAAAAAAAAAAAAAAAAAAAAAAAAAAAAAAAAAAAAAAAAAAAAAAAAAAAAAAAAAAAAAAAAAAAAAAAAAAAAAAAAAAAAAAAAAAAAAAAAAAAAAAAAAAAAAAAAAAAAAAAAAAAAAAAAAAAAAAAAAAAAAAAAAAAAAAAAAAAAAAAAAAAAAAAAAAAAAAAAAAAAAAAAAAAAAAAAAAAAAAAAAAAAAAAAAAAAAAAAAAAAAAAAAAAAAAAAAAAAAAAAAAAAAAAAAAAAAAAAAAAAAAAAAAAAAAAAAAAAAAAAAAAAAAAAAAAAAAAAAAAAAAAAAAAAAAAAAAAAAAAAAAAAAAAAAAAAAAAAAAAAAAAAAAAAAAAAAAAAAAAAAAAAAAAAAAAAAAAAAAAAAAAAAAAAAAAAAAAAAAAAAAAAAAAAAAAAAAAAAAAAAAAAAAAAAAAAAAAAAAAAAAAAAAAAAAAAAAAAAAAAAAAAAAAAAAAAAAAAAAAAAAAAAAAAAAAAAAAAAAAAAAAAAAAAAAAAAAAAAAAAAAAAAAAAAAAAAAAAAAAAAAAAAAAAAAAAAAAAAAAAAAAAAAAAAAAAAAAAAAAAAAAAAAAAAAAAAAAAAAAAAAAAAAAAAAAAAAAAAAAAAAAAAAAAAAAAAAAAAAAAAAAAAAAAAAAAAAAAAAAAAAAAAAAAAAAAAAAAAAAAAAAAAAAAAAAAAAAAAAAAAAAAAAAAAAAAAAAAAAAAAAAAAAAAAAAAAAAAAAAAAAAAAAAAAAAAAAAAAAAAAAAAAAAAAAAAAAAAAAAAAAAAAAAAAAAAAAAAAAAAAAAAAAAAAAAAAAAAAAAAAAAAAAAAAAAAAAAAAAAAAAAAAAAAAAAAAAAAAAAAAAAAAAAAAAAAAAAAAAAAAAAAAAAAAAAAAAAAAAAAAAAAAAAAAAAAAAAAAAAAAAAAAAAAAAAAAAAAAAAAAAAAAAAAAAAAAAAAAAAAAAAAAAAAAAAAAAAAAAAAAAAAAAAAAAAAAAAAAAAAAAAAAAAAAAAAAAAAAAAAAAAAAAAAAAAAAAAAAAAAAAAAAAAAAAAAAAAAAAAAAAAAAAAAAAAAAAAAAAAAAAAAAAAAAAAAAAAAAAAAAAAAAAAAAAAAAAAAAAAAAAAAAAAAAAAAAAAAAAAAAAAAAAAAAAAAAAAAAAAAAAAAAAAAAAAAAAAAAAAAAAAAAAAAAAAAAAAAAAAAAAAAAAAAAAAAAAAAAAAAAAAAAAAAAAAAAAAAAAAAAAAAAAAAAAAAAAAAAAAAAAAAAAAAAAAAAAAAAAAAAAAAAAAAAAAAAAAAAAAAAAAAAAAAAAAAAAAAAAAAAAAAAAAAAAAAAAAAAAAAAAAAAAAAAAAAAAAAAAAAAAAAAAAAAAAAAAAAAAAAAAAAAAAAAAAAAAAAAAAAAAAAAAAAAAAAAAAAAAAAAAAAAAAAAAAAAAAAAAAAAAAAAAAAAAAAAAAAAAAAAAAAAAAAAAAAAAAAAAAAAAAAAAAAAAAAAAAAAAAAAAAAAAAAAAAAAAAAAAAAAAAAAAAAAAAAAAAAAAAAAAAAAAAAAAAAAAAAAAAAAAAAAAAAAAAAAAAAAAAAAAAAAAAAAAAAAAAAAAAAAAAAAAAAAAAAAAAAAAAAAAAAAAAAAAAAAAAAAAAAAAAAAAAAAAAAAAAAAAAAAAAAAAAAAAAAAAAAAAAAAAAAAAAAAAAAAAAAAAAAAAAAAAAAAAAAAAAAAAAAAAAAAAAAAAAAAAAAAAAAAAAAAAAAAAAAAAAAAAAAAAAAAAAAAAAAAAAAAAAAAAAAAAAAAAAAAAAAAAAAAAAAAAAAAAAAAAAAAAAAAAAAAAAAAAAAAAAAAAAAAAAAAAAAAAAAAAAAAAAAAAAAAAAAAAAAAAAAAAAAAAAAAAAAAAAAAAAAAAAAAAAAAAAAAAAAAAAAAAAAAAAAAAAAAAAAAAAAAAAAAAAAAAAAAAAAAAAAAAAAAAAAAAAAAAAAAAAAAAAAAAAAAAAAAAAAAAAAAAAAAAAAAAAAAAAAAAAAAAAAAAAAAAAAAAAAAAAAAAAAAAAAAAAAAAAAAAAAAAAAAAAAAAAAAAAAAAAAAAAAAAAAAAAAAAAAAAAAAAAAAAAAAAAAAAAAAAAAAAAAAAAAAAAAAAAAAAAAAAAAAAAAAAAAAAAAAAAAAAAAAAAAAAAAAAAAAAAAAAAAAAAAAAAAAAAAAAAAAAAAAAAAAAAAAAAAAAAAAAAAAAAAAAAAAAAAAAAAAAAAAAAAAAAAAAAAAAAAAAAAAAAAAAAAAAAAAAAAAAAAAAAAAAAAAAAAAAAAAAAAAAAAAAAAAAAAAAAAAAAAAAAAAAAAAAAAAAAAAAAAAAAAAAAAAAAAAAAAAAAAAAAAAAAAAAAAAAAAAAAAAAAAAAAAAAAAAAAAAAAAAAAAAAAAAAAAAAAAAAAAAAAAAAAAAAAAAAAAAAAAAAAAAAAAAAAAAAAAAAAAAAAAAAAAAAAAAAAAAAAAAAAAAAAAAAAAAAAAAAAAAAAAAAAAAAAAAAAAAAAAAAAAAAAAAAAAAAAAAAAAAAAAAAAAAAAAAAAAAAAAAAAAAAAAAAAAAAAAAAAAAAAAAAAAAAAAAAAAAAAAAAAAAAAAAAAAAAAAAAAAAAAAAAAAAAAAAAAAAAAAAAAAAAAAAAAAAAAAAAAAAAAAAAAAAAAAAAAAAAAAAAAAAAAAAAAAAAAAAAAAAAAAAAAAAAAAAAAAAAAAAAAAAAAAAAAAAAAAAAAAAAAAAAAAAAAAAAAAAAAAAAAAAAAAAAAAAAAAAAAAAAAAAAAAAAAAAAAAAAAAAAAAAAAAAAAAAAAAAAAAAAAAAAAAAAAAAAAAAAAAAAAAAAAAAAAAAAAAAAAAAAAAAAAAAAAAAAAAAAAAAAAAAAAAAAAAAAAAAAAAAAAAAAAAAAAAAAAAAAAAAAAAAAAAAAAAAAAAAAAAAAAAAAAAAAAAAAAAAAAAAAAAAAAAAAAAAAAAAAAAAAAAAAAAAAAAAAAAAAAAAAAAAAAAAAAAAAAAAAAAAAAAAAAAAAAAAAAAAAAAAAAAAAAAAAAAAAAAAAAAAAAAAAAAAAAAAAAAAAAAAAAAAAAAAAAAAAAAAAAAAAAAAAAAAAAAAAAAAAAAAAAAAAAAAAAAAAAAAAAAAAAAAAAAAAAAAAAAAAAAAAAAAAAAAAAAAAAAAAAAAAAAAAAAAAAAAAAAAAAAAAAAAAAAAAAAAAAAAAAAAAAAAAAAAAAAAAAAAAAAAAAAAAAAAAAAAAAAAAAAAAAAAAAAAAAAAAAAAAAAAAAAAAAAAAAAAAAAAAAAAAAAAAAAAAAAAAAAAAAAAAAAAAAAAAAAAAAAAAAAAAAAAAAAAAAAAAAAAAAAAAAAAAAAAAAAAAAAAAAAAAAAAAAAAAAAAAAAAAAAAAAAAAAAAAAAAAAAAAAAAAAAAAAAAAAAAAAAAAAAAAAAAAAAAAAAAAAAAAAAAAAAAAAAAAAAAAAAAAAAAAAAAAAAAAAAAAAAAAAAAAAAAPZYQJlIQfJFcmNiyAQphHM0rG+RVQCpUXHtXyJ4VbIdfN3PN1BAdITdx1F6YSBukj4WT2Nugv/Gjb6palsRkepmCRk=</c2pa:manifest></metadata>
<rect x="357" y="445" width="183" height="62" rx="4" fill="#181C56"></rect>
<path d="M404.431 469.672L407.487 477.72H407.535L410.479 469.672H413.615V481H411.503L411.535 472.296H411.487L408.143 481H406.703L403.375 472.296H403.343L403.375 481H401.343V469.672H404.431ZM420.794 478.152V477.752C420.266 477.624 419.658 477.512 419.066 477.512C417.962 477.512 417.498 478.024 417.498 478.744C417.498 479.464 418.042 479.816 418.858 479.816C419.85 479.816 420.794 479.224 420.794 478.152ZM415.562 478.792C415.562 477.304 416.666 476.296 418.89 476.296C419.514 476.296 420.122 476.36 420.794 476.504V476.168C420.794 475.192 420.298 474.68 419.066 474.68C418.17 474.68 417.466 475 416.97 475.496L415.85 474.296C416.666 473.512 417.706 473.128 419.21 473.128C421.626 473.128 422.698 474.088 422.698 476.408V481H420.794V480.072H420.746C420.282 480.824 419.338 481.208 418.362 481.208C416.938 481.208 415.562 480.504 415.562 478.792ZM432.755 476.696V481H430.707V476.872C430.707 475.752 430.259 474.792 429.091 474.792C427.923 474.792 427.123 475.768 427.123 477.128V481H425.075V473.336H427.075V474.504H427.139C427.507 473.816 428.483 473.128 429.731 473.128C431.955 473.128 432.755 474.808 432.755 476.696ZM435.074 477.608V473.336H437.122V477.432C437.122 478.584 437.554 479.512 438.786 479.512C439.986 479.512 440.578 478.44 440.578 477.208V473.336H442.642V481H440.642V479.88H440.594C440.226 480.472 439.314 481.176 438.226 481.176C435.986 481.176 435.074 479.816 435.074 477.608ZM452.324 477.688H446.516C446.66 478.952 447.556 479.656 448.74 479.656C449.796 479.656 450.5 479.032 450.852 478.616L452.228 479.512C451.588 480.44 450.196 481.24 448.596 481.24C446.42 481.24 444.564 479.752 444.564 477.336C444.564 474.92 446.34 473.128 448.66 473.128C450.996 473.128 452.356 475 452.356 476.936C452.356 477.208 452.34 477.448 452.324 477.688ZM448.596 474.616C447.46 474.616 446.692 475.416 446.516 476.456H450.532C450.532 475.432 449.684 474.616 448.596 474.616ZM456.343 468.904V481H454.263V468.904H456.343ZM462.747 481V473.336H464.795V481H462.747ZM462.555 470.488C462.555 469.816 463.099 469.256 463.771 469.256C464.459 469.256 465.003 469.816 465.003 470.488C465.003 471.176 464.459 471.688 463.771 471.688C463.099 471.688 462.555 471.176 462.555 470.488ZM474.864 476.696V481H472.816V476.872C472.816 475.752 472.368 474.792 471.2 474.792C470.032 474.792 469.232 475.768 469.232 477.128V481H467.184V473.336H469.184V474.504H469.248C469.616 473.816 470.592 473.128 471.84 473.128C474.064 473.128 474.864 474.808 474.864 476.696ZM479.263 479.992V484.84H477.215V473.336H479.183V474.44H479.231C479.695 473.704 480.623 473.128 481.823 473.128C484.095 473.128 485.615 474.952 485.615 477.144C485.615 479.336 484.127 481.208 481.823 481.208C480.815 481.208 479.839 480.744 479.295 479.992H479.263ZM483.503 477.16C483.503 475.944 482.719 474.856 481.343 474.856C480.047 474.856 479.151 475.928 479.151 477.176C479.151 478.424 480.047 479.496 481.343 479.496C482.719 479.496 483.503 478.392 483.503 477.16ZM487.574 477.608V473.336H489.622V477.432C489.622 478.584 490.054 479.512 491.286 479.512C492.486 479.512 493.078 478.44 493.078 477.208V473.336H495.142V481H493.142V479.88H493.094C492.726 480.472 491.814 481.176 490.726 481.176C488.486 481.176 487.574 479.816 487.574 477.608ZM501.688 479.4V481H500.76C498.36 481 497.752 480.536 497.752 477.928V474.92H496.536V473.336H497.752V471.32H499.752V473.336H501.704V474.92H499.752V477.976C499.752 479.32 500.376 479.4 501.112 479.4H501.688Z" fill="white"></path>
<rect x="896" y="151" width="183" height="62" rx="4" fill="#AEB7E2"></rect>
<path d="M942.28 180.176C942.28 178.96 941.4 178.464 939.944 178.464H937.736V182.016H939.992C941.512 182.016 942.28 181.328 942.28 180.176ZM935.64 188V176.672H940.296C942.92 176.672 944.408 177.968 944.408 180.096C944.408 181.92 943.16 183.008 941.896 183.328L945 188H942.44L939.704 183.664H937.752V188H935.64ZM953.418 184.688H947.61C947.754 185.952 948.65 186.656 949.834 186.656C950.89 186.656 951.594 186.032 951.946 185.616L953.322 186.512C952.682 187.44 951.29 188.24 949.69 188.24C947.514 188.24 945.658 186.752 945.658 184.336C945.658 181.92 947.434 180.128 949.754 180.128C952.09 180.128 953.45 182 953.45 183.936C953.45 184.208 953.434 184.448 953.418 184.688ZM949.69 181.616C948.554 181.616 947.786 182.416 947.61 183.456H951.626C951.626 182.432 950.778 181.616 949.69 181.616ZM959.951 185.152V184.752C959.423 184.624 958.815 184.512 958.223 184.512C957.119 184.512 956.655 185.024 956.655 185.744C956.655 186.464 957.199 186.816 958.015 186.816C959.007 186.816 959.951 186.224 959.951 185.152ZM954.719 185.792C954.719 184.304 955.823 183.296 958.047 183.296C958.671 183.296 959.279 183.36 959.951 183.504V183.168C959.951 182.192 959.455 181.68 958.223 181.68C957.327 181.68 956.623 182 956.127 182.496L955.007 181.296C955.823 180.512 956.863 180.128 958.367 180.128C960.783 180.128 961.855 181.088 961.855 183.408V188H959.951V187.072H959.903C959.439 187.824 958.495 188.208 957.519 188.208C956.095 188.208 954.719 187.504 954.719 185.792ZM966.327 175.904V188H964.247V175.904H966.327ZM972.059 183.104V184.752H968.171V183.104H972.059ZM978.079 186.4V188H977.151C974.751 188 974.143 187.536 974.143 184.928V181.92H972.927V180.336H974.143V178.32H976.143V180.336H978.095V181.92H976.143V184.976C976.143 186.32 976.767 186.4 977.503 186.4H978.079ZM979.544 188V180.336H981.592V188H979.544ZM979.352 177.488C979.352 176.816 979.896 176.256 980.568 176.256C981.256 176.256 981.8 176.816 981.8 177.488C981.8 178.176 981.256 178.688 980.568 178.688C979.896 178.688 979.352 178.176 979.352 177.488ZM996.957 188H994.909V183.648C994.909 182.56 994.493 181.792 993.405 181.792C992.301 181.792 991.501 182.848 991.501 183.968V188H989.437V183.664C989.437 182.592 989.037 181.792 987.933 181.792C986.861 181.792 986.029 182.832 986.029 183.968V188H983.981V180.336H985.997V181.408H986.045C986.525 180.56 987.549 180.128 988.605 180.128C989.597 180.128 990.573 180.624 991.101 181.568H991.133C991.709 180.672 992.621 180.128 993.965 180.128C995.597 180.128 996.957 181.28 996.957 183.296V188ZM1006.62 184.688H1000.81C1000.96 185.952 1001.85 186.656 1003.04 186.656C1004.09 186.656 1004.8 186.032 1005.15 185.616L1006.53 186.512C1005.89 187.44 1004.49 188.24 1002.89 188.24C1000.72 188.24 998.861 186.752 998.861 184.336C998.861 181.92 1000.64 180.128 1002.96 180.128C1005.29 180.128 1006.65 182 1006.65 183.936C1006.65 184.208 1006.64 184.448 1006.62 184.688ZM1002.89 181.616C1001.76 181.616 1000.99 182.416 1000.81 183.456H1004.83C1004.83 182.432 1003.98 181.616 1002.89 181.616ZM1014.59 181.504H1014.61C1014.98 180.816 1015.95 180.128 1017.2 180.128C1019.42 180.128 1020.22 181.808 1020.22 183.696V188H1018.18V183.872C1018.18 182.752 1017.73 181.792 1016.56 181.792C1015.39 181.792 1014.59 182.768 1014.59 184.128V188H1012.54V175.904H1014.59V181.504ZM1022.54 184.608V180.336H1024.59V184.432C1024.59 185.584 1025.02 186.512 1026.25 186.512C1027.45 186.512 1028.05 185.44 1028.05 184.208V180.336H1030.11V188H1028.11V186.88H1028.06C1027.69 187.472 1026.78 188.176 1025.69 188.176C1023.45 188.176 1022.54 186.816 1022.54 184.608ZM1034.46 186.896H1034.43V188H1032.5V175.904H1034.54V181.344H1034.59C1035.09 180.656 1035.98 180.128 1037.1 180.128C1039.39 180.128 1040.9 181.952 1040.9 184.144C1040.9 186.336 1039.22 188.384 1036.85 188.176C1035.9 188.144 1034.98 187.696 1034.46 186.896ZM1038.8 184.16C1038.8 182.944 1038 181.856 1036.62 181.856C1035.33 181.856 1034.43 182.928 1034.43 184.176C1034.43 185.424 1035.34 186.496 1036.62 186.496C1038.02 186.496 1038.8 185.392 1038.8 184.16Z" fill="black"></path>
<rect x="686" y="151" width="183" height="62" rx="4" fill="#181C56"></rect>
<path d="M742.32 176.672L745.344 185.392H745.392L748.4 176.672H750.768L746.4 188H744.24L739.92 176.672H742.32ZM755.888 185.152V184.752C755.36 184.624 754.752 184.512 754.16 184.512C753.056 184.512 752.592 185.024 752.592 185.744C752.592 186.464 753.136 186.816 753.952 186.816C754.944 186.816 755.888 186.224 755.888 185.152ZM750.656 185.792C750.656 184.304 751.76 183.296 753.984 183.296C754.608 183.296 755.216 183.36 755.888 183.504V183.168C755.888 182.192 755.392 181.68 754.16 181.68C753.264 181.68 752.56 182 752.064 182.496L750.944 181.296C751.76 180.512 752.8 180.128 754.304 180.128C756.72 180.128 757.792 181.088 757.792 183.408V188H755.888V187.072H755.84C755.376 187.824 754.432 188.208 753.456 188.208C752.032 188.208 750.656 187.504 750.656 185.792ZM762.264 175.904V188H760.184V175.904H762.264ZM764.669 188V180.336H766.717V188H764.669ZM764.477 177.488C764.477 176.816 765.021 176.256 765.693 176.256C766.381 176.256 766.925 176.816 766.925 177.488C766.925 178.176 766.381 178.688 765.693 178.688C765.021 178.688 764.477 178.176 764.477 177.488ZM775.074 186.896C774.53 187.728 773.458 188.208 772.402 188.208C770.098 188.208 768.626 186.336 768.626 184.16C768.626 181.952 770.146 180.128 772.418 180.128C773.57 180.128 774.434 180.672 774.946 181.344H774.978V175.904H777.026V188H775.106V186.896H775.074ZM770.738 184.176C770.738 185.392 771.522 186.496 772.898 186.496C774.194 186.496 775.09 185.424 775.09 184.176C775.09 182.928 774.194 181.856 772.898 181.856C771.522 181.856 770.738 182.944 770.738 184.176ZM784.107 185.152V184.752C783.579 184.624 782.971 184.512 782.379 184.512C781.275 184.512 780.811 185.024 780.811 185.744C780.811 186.464 781.355 186.816 782.171 186.816C783.163 186.816 784.107 186.224 784.107 185.152ZM778.875 185.792C778.875 184.304 779.979 183.296 782.203 183.296C782.827 183.296 783.435 183.36 784.107 183.504V183.168C784.107 182.192 783.611 181.68 782.379 181.68C781.483 181.68 780.779 182 780.283 182.496L779.163 181.296C779.979 180.512 781.019 180.128 782.523 180.128C784.939 180.128 786.011 181.088 786.011 183.408V188H784.107V187.072H784.059C783.595 187.824 782.651 188.208 781.675 188.208C780.251 188.208 778.875 187.504 778.875 185.792ZM792.407 186.4V188H791.479C789.079 188 788.471 187.536 788.471 184.928V181.92H787.255V180.336H788.471V178.32H790.471V180.336H792.423V181.92H790.471V184.976C790.471 186.32 791.095 186.4 791.831 186.4H792.407ZM793.872 188V180.336H795.92V188H793.872ZM793.68 177.488C793.68 176.816 794.224 176.256 794.896 176.256C795.584 176.256 796.128 176.816 796.128 177.488C796.128 178.176 795.584 178.688 794.896 178.688C794.224 178.688 793.68 178.176 793.68 177.488ZM806.229 184.16C806.229 186.592 804.357 188.24 802.021 188.24C799.701 188.24 797.845 186.592 797.845 184.16C797.845 181.744 799.701 180.128 802.021 180.128C804.357 180.128 806.229 181.744 806.229 184.16ZM804.181 184.16C804.181 182.928 803.397 181.856 802.021 181.856C800.677 181.856 799.877 182.928 799.877 184.16C799.877 185.408 800.677 186.496 802.021 186.496C803.397 186.496 804.181 185.408 804.181 184.16ZM815.817 183.696V188H813.769V183.872C813.769 182.752 813.321 181.792 812.153 181.792C810.985 181.792 810.185 182.768 810.185 184.128V188H808.137V180.336H810.137V181.504H810.201C810.569 180.816 811.545 180.128 812.793 180.128C815.017 180.128 815.817 181.808 815.817 183.696Z" fill="white"></path>
<rect x="136" y="445" width="183" height="62" rx="4" fill="#D9DAE8"></rect>
<path d="M157.444 483V471.672H161.412C164.484 471.672 167.7 473.224 167.7 477.32C167.7 481.224 164.5 483 161.492 483H157.444ZM159.54 473.512V481.144H161.204C163.7 481.144 165.46 479.784 165.46 477.32C165.46 474.856 163.7 473.512 161.252 473.512H159.54ZM174.318 480.152V479.752C173.79 479.624 173.182 479.512 172.59 479.512C171.486 479.512 171.022 480.024 171.022 480.744C171.022 481.464 171.566 481.816 172.382 481.816C173.374 481.816 174.318 481.224 174.318 480.152ZM169.086 480.792C169.086 479.304 170.19 478.296 172.414 478.296C173.038 478.296 173.646 478.36 174.318 478.504V478.168C174.318 477.192 173.822 476.68 172.59 476.68C171.694 476.68 170.99 477 170.494 477.496L169.374 476.296C170.19 475.512 171.23 475.128 172.734 475.128C175.15 475.128 176.222 476.088 176.222 478.408V483H174.318V482.072H174.27C173.806 482.824 172.862 483.208 171.886 483.208C170.462 483.208 169.086 482.504 169.086 480.792ZM182.618 481.4V483H181.69C179.29 483 178.682 482.536 178.682 479.928V476.92H177.466V475.336H178.682V473.32H180.682V475.336H182.634V476.92H180.682V479.976C180.682 481.32 181.306 481.4 182.042 481.4H182.618ZM188.771 480.152V479.752C188.243 479.624 187.635 479.512 187.043 479.512C185.939 479.512 185.475 480.024 185.475 480.744C185.475 481.464 186.019 481.816 186.835 481.816C187.827 481.816 188.771 481.224 188.771 480.152ZM183.539 480.792C183.539 479.304 184.643 478.296 186.867 478.296C187.491 478.296 188.099 478.36 188.771 478.504V478.168C188.771 477.192 188.275 476.68 187.043 476.68C186.147 476.68 185.443 477 184.947 477.496L183.827 476.296C184.643 475.512 185.683 475.128 187.187 475.128C189.603 475.128 190.675 476.088 190.675 478.408V483H188.771V482.072H188.723C188.259 482.824 187.315 483.208 186.339 483.208C184.915 483.208 183.539 482.504 183.539 480.792ZM195.931 476.92V475.336H197.419V474.2C197.419 472.184 197.963 470.76 200.363 470.76H201.659V472.456H200.731C199.803 472.456 199.467 472.6 199.467 473.912V475.336H201.243V476.92H199.467V483H197.419V476.92H195.931ZM202.457 483V475.336H204.409V476.536H204.457C204.857 475.72 205.705 475.128 206.713 475.128C206.937 475.128 207.129 475.144 207.305 475.192V477.032C207.097 476.968 206.745 476.936 206.505 476.936C205.177 476.936 204.505 477.976 204.505 479.128V483H202.457ZM216.221 479.16C216.221 481.592 214.349 483.24 212.013 483.24C209.693 483.24 207.837 481.592 207.837 479.16C207.837 476.744 209.693 475.128 212.013 475.128C214.349 475.128 216.221 476.744 216.221 479.16ZM214.173 479.16C214.173 477.928 213.389 476.856 212.013 476.856C210.669 476.856 209.869 477.928 209.869 479.16C209.869 480.408 210.669 481.496 212.013 481.496C213.389 481.496 214.173 480.408 214.173 479.16ZM231.105 483H229.057V478.648C229.057 477.56 228.641 476.792 227.553 476.792C226.449 476.792 225.649 477.848 225.649 478.968V483H223.585V478.664C223.585 477.592 223.185 476.792 222.081 476.792C221.009 476.792 220.177 477.832 220.177 478.968V483H218.129V475.336H220.145V476.408H220.193C220.673 475.56 221.697 475.128 222.753 475.128C223.745 475.128 224.721 475.624 225.249 476.568H225.281C225.857 475.672 226.769 475.128 228.113 475.128C229.745 475.128 231.105 476.28 231.105 478.296V483ZM244.785 475.336L241.697 483H239.457L236.353 475.336H238.625L240.593 480.824H240.625L242.593 475.336H244.785ZM253.363 479.688H247.555C247.699 480.952 248.595 481.656 249.779 481.656C250.835 481.656 251.539 481.032 251.891 480.616L253.267 481.512C252.627 482.44 251.235 483.24 249.635 483.24C247.459 483.24 245.603 481.752 245.603 479.336C245.603 476.92 247.379 475.128 249.699 475.128C252.035 475.128 253.395 477 253.395 478.936C253.395 479.208 253.379 479.448 253.363 479.688ZM249.635 476.616C248.499 476.616 247.731 477.416 247.555 478.456H251.571C251.571 477.432 250.723 476.616 249.635 476.616ZM257.334 476.504H257.35C257.718 475.816 258.694 475.128 259.942 475.128C262.166 475.128 262.966 476.808 262.966 478.696V483H260.918V478.872C260.918 477.752 260.47 476.792 259.302 476.792C258.134 476.792 257.334 477.768 257.334 479.128V483H255.286V470.904H257.334V476.504ZM265.333 483V475.336H267.381V483H265.333ZM265.141 472.488C265.141 471.816 265.685 471.256 266.357 471.256C267.045 471.256 267.589 471.816 267.589 472.488C267.589 473.176 267.045 473.688 266.357 473.688C265.685 473.688 265.141 473.176 265.141 472.488ZM273.562 475.128C274.826 475.128 275.946 475.656 276.554 476.424L275.37 477.672C275.018 477.288 274.522 476.84 273.578 476.84C272.282 476.84 271.386 477.864 271.386 479.16C271.386 480.44 272.282 481.512 273.594 481.512C274.57 481.512 275.306 480.888 275.562 480.568L276.73 481.88C276.106 482.52 275.018 483.24 273.53 483.24C271.002 483.24 269.306 481.448 269.306 479.16C269.306 476.84 271.098 475.128 273.562 475.128ZM280.178 470.904V483H278.098V470.904H280.178ZM289.879 479.688H284.071C284.215 480.952 285.111 481.656 286.295 481.656C287.351 481.656 288.055 481.032 288.407 480.616L289.783 481.512C289.143 482.44 287.751 483.24 286.151 483.24C283.975 483.24 282.119 481.752 282.119 479.336C282.119 476.92 283.895 475.128 286.215 475.128C288.551 475.128 289.911 477 289.911 478.936C289.911 479.208 289.895 479.448 289.879 479.688ZM286.151 476.616C285.015 476.616 284.247 477.416 284.071 478.456H288.087C288.087 477.432 287.239 476.616 286.151 476.616ZM298.137 476.392L296.969 477.592C296.473 477.112 295.449 476.696 294.665 476.696C293.977 476.696 293.225 476.92 293.225 477.48C293.225 478.04 294.009 478.2 295.113 478.376C296.809 478.648 298.281 479.128 298.281 480.712C298.281 482.456 296.601 483.24 294.841 483.24C292.937 483.24 291.561 482.312 290.985 481.816L292.233 480.584C293.001 481.304 293.977 481.704 294.825 481.704C295.561 481.704 296.313 481.448 296.313 480.84C296.313 479.32 291.241 480.392 291.241 477.608C291.241 475.96 292.825 475.128 294.569 475.128C295.881 475.128 297.305 475.576 298.137 476.392Z" fill="#181C56"></path>
<rect x="417" y="299" width="183" height="62" rx="4" fill="#D9DAE8"></rect>
<path d="M463.301 322.92H460.869V327H458.741V315.672H463.317C466.117 315.672 467.509 317 467.509 319.176C467.509 321.528 465.909 322.92 463.301 322.92ZM460.869 317.464V321.176H463.109C464.645 321.176 465.381 320.408 465.381 319.256C465.381 318.168 464.741 317.464 463.109 317.464H460.869ZM468.692 327V319.336H470.644V320.536H470.692C471.092 319.72 471.94 319.128 472.948 319.128C473.172 319.128 473.364 319.144 473.54 319.192V321.032C473.332 320.968 472.98 320.936 472.74 320.936C471.412 320.936 470.74 321.976 470.74 323.128V327H468.692ZM482.456 323.16C482.456 325.592 480.584 327.24 478.248 327.24C475.928 327.24 474.072 325.592 474.072 323.16C474.072 320.744 475.928 319.128 478.248 319.128C480.584 319.128 482.456 320.744 482.456 323.16ZM480.408 323.16C480.408 321.928 479.624 320.856 478.248 320.856C476.904 320.856 476.104 321.928 476.104 323.16C476.104 324.408 476.904 325.496 478.248 325.496C479.624 325.496 480.408 324.408 480.408 323.16ZM490.332 325.896C489.788 326.728 488.716 327.208 487.66 327.208C485.356 327.208 483.884 325.336 483.884 323.16C483.884 320.952 485.404 319.128 487.676 319.128C488.828 319.128 489.692 319.672 490.204 320.344H490.236V314.904H492.284V327H490.364V325.896H490.332ZM485.996 323.176C485.996 324.392 486.78 325.496 488.156 325.496C489.452 325.496 490.348 324.424 490.348 323.176C490.348 321.928 489.452 320.856 488.156 320.856C486.78 320.856 485.996 321.944 485.996 323.176ZM494.629 323.608V319.336H496.677V323.432C496.677 324.584 497.109 325.512 498.341 325.512C499.541 325.512 500.133 324.44 500.133 323.208V319.336H502.197V327H500.197V325.88H500.149C499.781 326.472 498.869 327.176 497.781 327.176C495.541 327.176 494.629 325.816 494.629 323.608ZM508.359 319.128C509.623 319.128 510.743 319.656 511.351 320.424L510.167 321.672C509.815 321.288 509.319 320.84 508.375 320.84C507.079 320.84 506.183 321.864 506.183 323.16C506.183 324.44 507.079 325.512 508.391 325.512C509.367 325.512 510.103 324.888 510.359 324.568L511.527 325.88C510.903 326.52 509.815 327.24 508.327 327.24C505.799 327.24 504.103 325.448 504.103 323.16C504.103 320.84 505.895 319.128 508.359 319.128ZM520.191 323.688H514.383C514.527 324.952 515.423 325.656 516.607 325.656C517.663 325.656 518.367 325.032 518.719 324.616L520.095 325.512C519.455 326.44 518.063 327.24 516.463 327.24C514.287 327.24 512.431 325.752 512.431 323.336C512.431 320.92 514.207 319.128 516.527 319.128C518.863 319.128 520.223 321 520.223 322.936C520.223 323.208 520.207 323.448 520.191 323.688ZM516.463 320.616C515.327 320.616 514.559 321.416 514.383 322.456H518.399C518.399 321.432 517.551 320.616 516.463 320.616ZM533.17 316.92L531.842 318.28C531.106 317.512 530.258 317.208 529.522 317.208C528.29 317.208 527.762 317.864 527.762 318.488C527.762 320.584 533.554 320.056 533.554 323.72C533.554 325.832 531.618 327.304 529.378 327.304C527.234 327.304 525.762 325.976 525.378 325.592L526.722 324.152C527.458 324.952 528.45 325.464 529.442 325.464C530.594 325.464 531.426 324.76 531.426 323.912C531.426 321.768 525.65 322.344 525.65 318.696C525.65 316.744 527.33 315.384 529.506 315.384C530.818 315.384 532.274 315.896 533.17 316.92ZM537.76 315.672V327H535.616V315.672H537.76ZM546.991 319.176C546.991 317.96 546.111 317.464 544.655 317.464H542.447V321.016H544.703C546.223 321.016 546.991 320.328 546.991 319.176ZM540.351 327V315.672H545.007C547.631 315.672 549.119 316.968 549.119 319.096C549.119 320.92 547.871 322.008 546.607 322.328L549.711 327H547.151L544.415 322.664H542.463V327H540.351ZM553.26 315.672V327H551.116V315.672H553.26ZM478.365 340.92L477.037 342.28C476.301 341.512 475.453 341.208 474.717 341.208C473.485 341.208 472.957 341.864 472.957 342.488C472.957 344.584 478.749 344.056 478.749 347.72C478.749 349.832 476.813 351.304 474.573 351.304C472.429 351.304 470.957 349.976 470.573 349.592L471.917 348.152C472.653 348.952 473.645 349.464 474.637 349.464C475.789 349.464 476.621 348.76 476.621 347.912C476.621 345.768 470.845 346.344 470.845 342.696C470.845 340.744 472.525 339.384 474.701 339.384C476.013 339.384 477.469 339.896 478.365 340.92ZM482.636 339.672L485.116 343.592L487.564 339.672H490.076L486.428 345.032L490.556 351H487.884L485.052 346.6L482.268 351H479.676L483.724 345.032L480.028 339.672H482.636ZM494.798 344.92V343.336H496.286V342.2C496.286 340.184 496.83 338.76 499.23 338.76H500.526V340.456H499.598C498.67 340.456 498.334 340.6 498.334 341.912V343.336H500.11V344.92H498.334V351H496.286V344.92H494.798ZM509.245 347.16C509.245 349.592 507.373 351.24 505.037 351.24C502.717 351.24 500.861 349.592 500.861 347.16C500.861 344.744 502.717 343.128 505.037 343.128C507.373 343.128 509.245 344.744 509.245 347.16ZM507.197 347.16C507.197 345.928 506.413 344.856 505.037 344.856C503.693 344.856 502.893 345.928 502.893 347.16C502.893 348.408 503.693 349.496 505.037 349.496C506.413 349.496 507.197 348.408 507.197 347.16ZM511.153 351V343.336H513.105V344.536H513.153C513.553 343.72 514.401 343.128 515.409 343.128C515.633 343.128 515.825 343.144 516.001 343.192V345.032C515.793 344.968 515.441 344.936 515.201 344.936C513.873 344.936 513.201 345.976 513.201 347.128V351H511.153ZM530.254 351H528.206V346.648C528.206 345.56 527.79 344.792 526.702 344.792C525.598 344.792 524.798 345.848 524.798 346.968V351H522.734V346.664C522.734 345.592 522.334 344.792 521.23 344.792C520.158 344.792 519.326 345.832 519.326 346.968V351H517.278V343.336H519.294V344.408H519.342C519.822 343.56 520.846 343.128 521.902 343.128C522.894 343.128 523.87 343.624 524.398 344.568H524.43C525.006 343.672 525.918 343.128 527.262 343.128C528.894 343.128 530.254 344.28 530.254 346.296V351ZM537.31 348.152V347.752C536.782 347.624 536.174 347.512 535.582 347.512C534.478 347.512 534.014 348.024 534.014 348.744C534.014 349.464 534.558 349.816 535.374 349.816C536.366 349.816 537.31 349.224 537.31 348.152ZM532.078 348.792C532.078 347.304 533.182 346.296 535.406 346.296C536.03 346.296 536.638 346.36 537.31 346.504V346.168C537.31 345.192 536.814 344.68 535.582 344.68C534.686 344.68 533.982 345 533.486 345.496L532.366 344.296C533.182 343.512 534.222 343.128 535.726 343.128C538.142 343.128 539.214 344.088 539.214 346.408V351H537.31V350.072H537.262C536.798 350.824 535.854 351.208 534.878 351.208C533.454 351.208 532.078 350.504 532.078 348.792ZM545.61 349.4V351H544.682C542.282 351 541.674 350.536 541.674 347.928V344.92H540.458V343.336H541.674V341.32H543.674V343.336H545.626V344.92H543.674V347.976C543.674 349.32 544.298 349.4 545.034 349.4H545.61Z" fill="#181C56"></path>
<rect x="417" y="224" width="183" height="62" rx="4" fill="#D9DAE8"></rect>
<path d="M463.301 247.92H460.869V252H458.741V240.672H463.317C466.117 240.672 467.509 242 467.509 244.176C467.509 246.528 465.909 247.92 463.301 247.92ZM460.869 242.464V246.176H463.109C464.645 246.176 465.381 245.408 465.381 244.256C465.381 243.168 464.741 242.464 463.109 242.464H460.869ZM468.692 252V244.336H470.644V245.536H470.692C471.092 244.72 471.94 244.128 472.948 244.128C473.172 244.128 473.364 244.144 473.54 244.192V246.032C473.332 245.968 472.98 245.936 472.74 245.936C471.412 245.936 470.74 246.976 470.74 248.128V252H468.692ZM482.456 248.16C482.456 250.592 480.584 252.24 478.248 252.24C475.928 252.24 474.072 250.592 474.072 248.16C474.072 245.744 475.928 244.128 478.248 244.128C480.584 244.128 482.456 245.744 482.456 248.16ZM480.408 248.16C480.408 246.928 479.624 245.856 478.248 245.856C476.904 245.856 476.104 246.928 476.104 248.16C476.104 249.408 476.904 250.496 478.248 250.496C479.624 250.496 480.408 249.408 480.408 248.16ZM490.332 250.896C489.788 251.728 488.716 252.208 487.66 252.208C485.356 252.208 483.884 250.336 483.884 248.16C483.884 245.952 485.404 244.128 487.676 244.128C488.828 244.128 489.692 244.672 490.204 245.344H490.236V239.904H492.284V252H490.364V250.896H490.332ZM485.996 248.176C485.996 249.392 486.78 250.496 488.156 250.496C489.452 250.496 490.348 249.424 490.348 248.176C490.348 246.928 489.452 245.856 488.156 245.856C486.78 245.856 485.996 246.944 485.996 248.176ZM494.629 248.608V244.336H496.677V248.432C496.677 249.584 497.109 250.512 498.341 250.512C499.541 250.512 500.133 249.44 500.133 248.208V244.336H502.197V252H500.197V250.88H500.149C499.781 251.472 498.869 252.176 497.781 252.176C495.541 252.176 494.629 250.816 494.629 248.608ZM508.359 244.128C509.623 244.128 510.743 244.656 511.351 245.424L510.167 246.672C509.815 246.288 509.319 245.84 508.375 245.84C507.079 245.84 506.183 246.864 506.183 248.16C506.183 249.44 507.079 250.512 508.391 250.512C509.367 250.512 510.103 249.888 510.359 249.568L511.527 250.88C510.903 251.52 509.815 252.24 508.327 252.24C505.799 252.24 504.103 250.448 504.103 248.16C504.103 245.84 505.895 244.128 508.359 244.128ZM520.191 248.688H514.383C514.527 249.952 515.423 250.656 516.607 250.656C517.663 250.656 518.367 250.032 518.719 249.616L520.095 250.512C519.455 251.44 518.063 252.24 516.463 252.24C514.287 252.24 512.431 250.752 512.431 248.336C512.431 245.92 514.207 244.128 516.527 244.128C518.863 244.128 520.223 246 520.223 247.936C520.223 248.208 520.207 248.448 520.191 248.688ZM516.463 245.616C515.327 245.616 514.559 246.416 514.383 247.456H518.399C518.399 246.432 517.551 245.616 516.463 245.616ZM533.17 241.92L531.842 243.28C531.106 242.512 530.258 242.208 529.522 242.208C528.29 242.208 527.762 242.864 527.762 243.488C527.762 245.584 533.554 245.056 533.554 248.72C533.554 250.832 531.618 252.304 529.378 252.304C527.234 252.304 525.762 250.976 525.378 250.592L526.722 249.152C527.458 249.952 528.45 250.464 529.442 250.464C530.594 250.464 531.426 249.76 531.426 248.912C531.426 246.768 525.65 247.344 525.65 243.696C525.65 241.744 527.33 240.384 529.506 240.384C530.818 240.384 532.274 240.896 533.17 241.92ZM537.76 240.672V252H535.616V240.672H537.76ZM546.991 244.176C546.991 242.96 546.111 242.464 544.655 242.464H542.447V246.016H544.703C546.223 246.016 546.991 245.328 546.991 244.176ZM540.351 252V240.672H545.007C547.631 240.672 549.119 241.968 549.119 244.096C549.119 245.92 547.871 247.008 546.607 247.328L549.711 252H547.151L544.415 247.664H542.463V252H540.351ZM553.26 240.672V252H551.116V240.672H553.26ZM480.149 276H472.101V264.672H479.989V266.512H474.181V269.392H478.997V271.12H474.181V274.16H480.149V276ZM486.5 266.528V276H484.356V266.528H480.948V264.672H489.924V266.528H486.5ZM494.119 269.92V268.336H495.607V267.2C495.607 265.184 496.151 263.76 498.551 263.76H499.847V265.456H498.919C497.991 265.456 497.655 265.6 497.655 266.912V268.336H499.431V269.92H497.655V276H495.607V269.92H494.119ZM508.565 272.16C508.565 274.592 506.693 276.24 504.357 276.24C502.037 276.24 500.181 274.592 500.181 272.16C500.181 269.744 502.037 268.128 504.357 268.128C506.693 268.128 508.565 269.744 508.565 272.16ZM506.517 272.16C506.517 270.928 505.733 269.856 504.357 269.856C503.013 269.856 502.213 270.928 502.213 272.16C502.213 273.408 503.013 274.496 504.357 274.496C505.733 274.496 506.517 273.408 506.517 272.16ZM510.473 276V268.336H512.425V269.536H512.473C512.873 268.72 513.721 268.128 514.729 268.128C514.953 268.128 515.145 268.144 515.321 268.192V270.032C515.113 269.968 514.761 269.936 514.521 269.936C513.193 269.936 512.521 270.976 512.521 272.128V276H510.473ZM529.574 276H527.526V271.648C527.526 270.56 527.11 269.792 526.022 269.792C524.918 269.792 524.118 270.848 524.118 271.968V276H522.054V271.664C522.054 270.592 521.654 269.792 520.55 269.792C519.478 269.792 518.646 270.832 518.646 271.968V276H516.598V268.336H518.614V269.408H518.662C519.142 268.56 520.166 268.128 521.222 268.128C522.214 268.128 523.19 268.624 523.718 269.568H523.75C524.326 268.672 525.238 268.128 526.582 268.128C528.214 268.128 529.574 269.28 529.574 271.296V276ZM536.63 273.152V272.752C536.102 272.624 535.494 272.512 534.902 272.512C533.798 272.512 533.334 273.024 533.334 273.744C533.334 274.464 533.878 274.816 534.694 274.816C535.686 274.816 536.63 274.224 536.63 273.152ZM531.398 273.792C531.398 272.304 532.502 271.296 534.726 271.296C535.35 271.296 535.958 271.36 536.63 271.504V271.168C536.63 270.192 536.134 269.68 534.902 269.68C534.006 269.68 533.302 270 532.806 270.496L531.686 269.296C532.502 268.512 533.542 268.128 535.046 268.128C537.462 268.128 538.534 269.088 538.534 271.408V276H536.63V275.072H536.582C536.118 275.824 535.174 276.208 534.198 276.208C532.774 276.208 531.398 275.504 531.398 273.792ZM544.93 274.4V276H544.002C541.602 276 540.994 275.536 540.994 272.928V269.92H539.778V268.336H540.994V266.32H542.994V268.336H544.946V269.92H542.994V272.976C542.994 274.32 543.618 274.4 544.354 274.4H544.93Z" fill="#181C56"></path>
<rect x="417" y="74" width="183" height="62" rx="4" fill="#D9DAE8"></rect>
<path d="M463.301 97.92H460.869V102H458.741V90.672H463.317C466.117 90.672 467.509 92 467.509 94.176C467.509 96.528 465.909 97.92 463.301 97.92ZM460.869 92.464V96.176H463.109C464.645 96.176 465.381 95.408 465.381 94.256C465.381 93.168 464.741 92.464 463.109 92.464H460.869ZM468.692 102V94.336H470.644V95.536H470.692C471.092 94.72 471.94 94.128 472.948 94.128C473.172 94.128 473.364 94.144 473.54 94.192V96.032C473.332 95.968 472.98 95.936 472.74 95.936C471.412 95.936 470.74 96.976 470.74 98.128V102H468.692ZM482.456 98.16C482.456 100.592 480.584 102.24 478.248 102.24C475.928 102.24 474.072 100.592 474.072 98.16C474.072 95.744 475.928 94.128 478.248 94.128C480.584 94.128 482.456 95.744 482.456 98.16ZM480.408 98.16C480.408 96.928 479.624 95.856 478.248 95.856C476.904 95.856 476.104 96.928 476.104 98.16C476.104 99.408 476.904 100.496 478.248 100.496C479.624 100.496 480.408 99.408 480.408 98.16ZM490.332 100.896C489.788 101.728 488.716 102.208 487.66 102.208C485.356 102.208 483.884 100.336 483.884 98.16C483.884 95.952 485.404 94.128 487.676 94.128C488.828 94.128 489.692 94.672 490.204 95.344H490.236V89.904H492.284V102H490.364V100.896H490.332ZM485.996 98.176C485.996 99.392 486.78 100.496 488.156 100.496C489.452 100.496 490.348 99.424 490.348 98.176C490.348 96.928 489.452 95.856 488.156 95.856C486.78 95.856 485.996 96.944 485.996 98.176ZM494.629 98.608V94.336H496.677V98.432C496.677 99.584 497.109 100.512 498.341 100.512C499.541 100.512 500.133 99.44 500.133 98.208V94.336H502.197V102H500.197V100.88H500.149C499.781 101.472 498.869 102.176 497.781 102.176C495.541 102.176 494.629 100.816 494.629 98.608ZM508.359 94.128C509.623 94.128 510.743 94.656 511.351 95.424L510.167 96.672C509.815 96.288 509.319 95.84 508.375 95.84C507.079 95.84 506.183 96.864 506.183 98.16C506.183 99.44 507.079 100.512 508.391 100.512C509.367 100.512 510.103 99.888 510.359 99.568L511.527 100.88C510.903 101.52 509.815 102.24 508.327 102.24C505.799 102.24 504.103 100.448 504.103 98.16C504.103 95.84 505.895 94.128 508.359 94.128ZM520.191 98.688H514.383C514.527 99.952 515.423 100.656 516.607 100.656C517.663 100.656 518.367 100.032 518.719 99.616L520.095 100.512C519.455 101.44 518.063 102.24 516.463 102.24C514.287 102.24 512.431 100.752 512.431 98.336C512.431 95.92 514.207 94.128 516.527 94.128C518.863 94.128 520.223 96 520.223 97.936C520.223 98.208 520.207 98.448 520.191 98.688ZM516.463 95.616C515.327 95.616 514.559 96.416 514.383 97.456H518.399C518.399 96.432 517.551 95.616 516.463 95.616ZM533.17 91.92L531.842 93.28C531.106 92.512 530.258 92.208 529.522 92.208C528.29 92.208 527.762 92.864 527.762 93.488C527.762 95.584 533.554 95.056 533.554 98.72C533.554 100.832 531.618 102.304 529.378 102.304C527.234 102.304 525.762 100.976 525.378 100.592L526.722 99.152C527.458 99.952 528.45 100.464 529.442 100.464C530.594 100.464 531.426 99.76 531.426 98.912C531.426 96.768 525.65 97.344 525.65 93.696C525.65 91.744 527.33 90.384 529.506 90.384C530.818 90.384 532.274 90.896 533.17 91.92ZM537.76 90.672V102H535.616V90.672H537.76ZM546.991 94.176C546.991 92.96 546.111 92.464 544.655 92.464H542.447V96.016H544.703C546.223 96.016 546.991 95.328 546.991 94.176ZM540.351 102V90.672H545.007C547.631 90.672 549.119 91.968 549.119 94.096C549.119 95.92 547.871 97.008 546.607 97.328L549.711 102H547.151L544.415 97.664H542.463V102H540.351ZM553.26 90.672V102H551.116V90.672H553.26ZM469.976 114.672L473 123.392H473.048L476.056 114.672H478.424L474.056 126H471.896L467.576 114.672H469.976ZM482.712 114.672L485.768 122.72H485.816L488.76 114.672H491.896V126H489.784L489.816 117.296H489.768L486.424 126H484.984L481.656 117.296H481.624L481.656 126H479.624V114.672H482.712ZM497.252 119.92V118.336H498.74V117.2C498.74 115.184 499.284 113.76 501.684 113.76H502.98V115.456H502.052C501.124 115.456 500.788 115.6 500.788 116.912V118.336H502.564V119.92H500.788V126H498.74V119.92H497.252ZM511.698 122.16C511.698 124.592 509.826 126.24 507.49 126.24C505.17 126.24 503.314 124.592 503.314 122.16C503.314 119.744 505.17 118.128 507.49 118.128C509.826 118.128 511.698 119.744 511.698 122.16ZM509.65 122.16C509.65 120.928 508.866 119.856 507.49 119.856C506.146 119.856 505.346 120.928 505.346 122.16C505.346 123.408 506.146 124.496 507.49 124.496C508.866 124.496 509.65 123.408 509.65 122.16ZM513.606 126V118.336H515.558V119.536H515.606C516.006 118.72 516.854 118.128 517.862 118.128C518.086 118.128 518.278 118.144 518.454 118.192V120.032C518.246 119.968 517.894 119.936 517.654 119.936C516.326 119.936 515.654 120.976 515.654 122.128V126H513.606ZM532.707 126H530.659V121.648C530.659 120.56 530.243 119.792 529.155 119.792C528.051 119.792 527.251 120.848 527.251 121.968V126H525.187V121.664C525.187 120.592 524.787 119.792 523.683 119.792C522.611 119.792 521.779 120.832 521.779 121.968V126H519.731V118.336H521.747V119.408H521.795C522.275 118.56 523.299 118.128 524.355 118.128C525.347 118.128 526.323 118.624 526.851 119.568H526.883C527.459 118.672 528.371 118.128 529.715 118.128C531.347 118.128 532.707 119.28 532.707 121.296V126ZM539.763 123.152V122.752C539.235 122.624 538.627 122.512 538.035 122.512C536.931 122.512 536.467 123.024 536.467 123.744C536.467 124.464 537.011 124.816 537.827 124.816C538.819 124.816 539.763 124.224 539.763 123.152ZM534.531 123.792C534.531 122.304 535.635 121.296 537.859 121.296C538.483 121.296 539.091 121.36 539.763 121.504V121.168C539.763 120.192 539.267 119.68 538.035 119.68C537.139 119.68 536.435 120 535.939 120.496L534.819 119.296C535.635 118.512 536.675 118.128 538.179 118.128C540.595 118.128 541.667 119.088 541.667 121.408V126H539.763V125.072H539.715C539.251 125.824 538.307 126.208 537.331 126.208C535.907 126.208 534.531 125.504 534.531 123.792ZM548.063 124.4V126H547.135C544.735 126 544.127 125.536 544.127 122.928V119.92H542.911V118.336H544.127V116.32H546.127V118.336H548.079V119.92H546.127V122.976C546.127 124.32 546.751 124.4 547.487 124.4H548.063Z" fill="#181C56"></path>
<rect x="416" y="149" width="183" height="62" rx="4" fill="#D9DAE8"></rect>
<path d="M445.153 180.92H442.721V185H440.593V173.672H445.169C447.969 173.672 449.361 175 449.361 177.176C449.361 179.528 447.761 180.92 445.153 180.92ZM442.721 175.464V179.176H444.961C446.497 179.176 447.233 178.408 447.233 177.256C447.233 176.168 446.593 175.464 444.961 175.464H442.721ZM450.543 185V177.336H452.495V178.536H452.543C452.943 177.72 453.791 177.128 454.799 177.128C455.023 177.128 455.215 177.144 455.391 177.192V179.032C455.183 178.968 454.831 178.936 454.591 178.936C453.263 178.936 452.591 179.976 452.591 181.128V185H450.543ZM463.699 181.688H457.891C458.035 182.952 458.931 183.656 460.115 183.656C461.171 183.656 461.875 183.032 462.227 182.616L463.603 183.512C462.963 184.44 461.571 185.24 459.971 185.24C457.795 185.24 455.939 183.752 455.939 181.336C455.939 178.92 457.715 177.128 460.035 177.128C462.371 177.128 463.731 179 463.731 180.936C463.731 181.208 463.715 181.448 463.699 181.688ZM459.971 178.616C458.835 178.616 458.067 179.416 457.891 180.456H461.907C461.907 179.432 461.059 178.616 459.971 178.616ZM471.59 183.896C471.046 184.728 469.974 185.208 468.918 185.208C466.614 185.208 465.142 183.336 465.142 181.16C465.142 178.952 466.662 177.128 468.934 177.128C470.086 177.128 470.95 177.672 471.462 178.344H471.494V172.904H473.542V185H471.622V183.896H471.59ZM467.254 181.176C467.254 182.392 468.038 183.496 469.414 183.496C470.71 183.496 471.606 182.424 471.606 181.176C471.606 179.928 470.71 178.856 469.414 178.856C468.038 178.856 467.254 179.944 467.254 181.176ZM475.934 185V177.336H477.982V185H475.934ZM475.742 174.488C475.742 173.816 476.286 173.256 476.958 173.256C477.646 173.256 478.19 173.816 478.19 174.488C478.19 175.176 477.646 175.688 476.958 175.688C476.286 175.688 475.742 175.176 475.742 174.488ZM484.164 177.128C485.428 177.128 486.548 177.656 487.156 178.424L485.972 179.672C485.62 179.288 485.124 178.84 484.18 178.84C482.884 178.84 481.988 179.864 481.988 181.16C481.988 182.44 482.884 183.512 484.196 183.512C485.172 183.512 485.908 182.888 486.164 182.568L487.332 183.88C486.708 184.52 485.62 185.24 484.132 185.24C481.604 185.24 479.908 183.448 479.908 181.16C479.908 178.84 481.7 177.128 484.164 177.128ZM492.86 183.4V185H491.932C489.532 185 488.924 184.536 488.924 181.928V178.92H487.708V177.336H488.924V175.32H490.924V177.336H492.876V178.92H490.924V181.976C490.924 183.32 491.548 183.4 492.284 183.4H492.86ZM494.325 185V177.336H496.373V185H494.325ZM494.133 174.488C494.133 173.816 494.677 173.256 495.349 173.256C496.037 173.256 496.581 173.816 496.581 174.488C496.581 175.176 496.037 175.688 495.349 175.688C494.677 175.688 494.133 175.176 494.133 174.488ZM506.682 181.16C506.682 183.592 504.81 185.24 502.474 185.24C500.154 185.24 498.298 183.592 498.298 181.16C498.298 178.744 500.154 177.128 502.474 177.128C504.81 177.128 506.682 178.744 506.682 181.16ZM504.634 181.16C504.634 179.928 503.85 178.856 502.474 178.856C501.13 178.856 500.33 179.928 500.33 181.16C500.33 182.408 501.13 183.496 502.474 183.496C503.85 183.496 504.634 182.408 504.634 181.16ZM516.27 180.696V185H514.222V180.872C514.222 179.752 513.774 178.792 512.606 178.792C511.438 178.792 510.638 179.768 510.638 181.128V185H508.59V177.336H510.59V178.504H510.654C511.022 177.816 511.998 177.128 513.246 177.128C515.47 177.128 516.27 178.808 516.27 180.696ZM529.934 181.688H524.126C524.27 182.952 525.166 183.656 526.35 183.656C527.406 183.656 528.11 183.032 528.462 182.616L529.838 183.512C529.198 184.44 527.806 185.24 526.206 185.24C524.03 185.24 522.174 183.752 522.174 181.336C522.174 178.92 523.95 177.128 526.27 177.128C528.606 177.128 529.966 179 529.966 180.936C529.966 181.208 529.95 181.448 529.934 181.688ZM526.206 178.616C525.07 178.616 524.302 179.416 524.126 180.456H528.142C528.142 179.432 527.294 178.616 526.206 178.616ZM539.536 180.696V185H537.488V180.872C537.488 179.752 537.04 178.792 535.872 178.792C534.704 178.792 533.904 179.768 533.904 181.128V185H531.856V177.336H533.856V178.504H533.92C534.288 177.816 535.264 177.128 536.512 177.128C538.736 177.128 539.536 178.808 539.536 180.696ZM541.519 187.544L542.607 186.056C543.279 186.728 544.303 187.16 545.279 187.16C547.055 187.16 547.775 186.104 547.775 184.664V183.848H547.743C547.247 184.552 546.287 185 545.343 185C543.023 185 541.423 183.432 541.423 181.096C541.423 178.952 542.895 177.128 545.215 177.128C546.255 177.128 547.231 177.576 547.807 178.472H547.839V177.336H549.807V184.504C549.807 187.08 548.367 188.84 545.343 188.84C543.967 188.84 542.527 188.392 541.519 187.544ZM543.519 181.112C543.519 182.296 544.351 183.384 545.679 183.384C546.975 183.384 547.887 182.392 547.887 181.096C547.887 179.864 546.975 178.84 545.679 178.84C544.351 178.84 543.519 179.864 543.519 181.112ZM552.184 185V177.336H554.232V185H552.184ZM551.992 174.488C551.992 173.816 552.536 173.256 553.208 173.256C553.896 173.256 554.44 173.816 554.44 174.488C554.44 175.176 553.896 175.688 553.208 175.688C552.536 175.688 551.992 175.176 551.992 174.488ZM564.302 180.696V185H562.254V180.872C562.254 179.752 561.806 178.792 560.638 178.792C559.47 178.792 558.67 179.768 558.67 181.128V185H556.622V177.336H558.622V178.504H558.686C559.054 177.816 560.03 177.128 561.278 177.128C563.502 177.128 564.302 178.808 564.302 180.696ZM573.965 181.688H568.157C568.301 182.952 569.197 183.656 570.381 183.656C571.437 183.656 572.141 183.032 572.493 182.616L573.869 183.512C573.229 184.44 571.837 185.24 570.237 185.24C568.061 185.24 566.205 183.752 566.205 181.336C566.205 178.92 567.981 177.128 570.301 177.128C572.637 177.128 573.997 179 573.997 180.936C573.997 181.208 573.981 181.448 573.965 181.688ZM570.237 178.616C569.101 178.616 568.333 179.416 568.157 180.456H572.173C572.173 179.432 571.325 178.616 570.237 178.616Z" fill="#181C56"></path>
<rect x="96" y="23" width="183" height="62" rx="4" fill="#F6F6F9"></rect>
<path d="M156.257 43.888L155.217 44.88C154.417 44.048 153.665 43.776 152.881 43.776C151.425 43.776 150.913 44.608 150.913 45.328C150.913 47.792 156.865 47.072 156.865 50.864C156.865 52.768 155.137 54.288 152.913 54.288C150.673 54.288 149.361 52.752 149.217 52.576L150.305 51.52C151.089 52.4 152.001 52.88 153.009 52.88C154.401 52.88 155.313 52 155.313 50.992C155.313 48.416 149.361 49.184 149.361 45.504C149.361 43.856 150.705 42.384 152.865 42.384C154.129 42.384 155.457 42.88 156.257 43.888ZM162.63 46.208C163.926 46.208 164.998 46.768 165.606 47.632L164.63 48.416C164.246 48 163.734 47.456 162.614 47.456C161.078 47.456 160.118 48.688 160.118 50.176C160.118 51.616 161.062 52.944 162.63 52.944C163.798 52.944 164.63 52.176 164.886 51.84L165.83 52.736C165.222 53.392 164.182 54.208 162.598 54.208C160.182 54.208 158.566 52.368 158.566 50.176C158.566 47.936 160.278 46.208 162.63 46.208ZM174.637 49.792V54H173.133V49.808C173.133 48.576 172.653 47.424 171.245 47.424C169.853 47.424 168.909 48.576 168.909 50.16V54H167.405V41.904H168.909V47.664H168.973C169.325 46.944 170.301 46.208 171.597 46.208C173.789 46.208 174.637 47.824 174.637 49.792ZM184.258 50.64H178.21C178.386 52.128 179.378 52.944 180.802 52.944C182.034 52.944 182.85 52.224 183.234 51.76L184.194 52.56C183.586 53.408 182.258 54.208 180.626 54.208C178.434 54.208 176.754 52.64 176.754 50.416C176.754 48.112 178.418 46.208 180.738 46.208C183.09 46.208 184.29 48.144 184.29 49.84C184.29 50.128 184.274 50.384 184.258 50.64ZM180.658 47.456C179.362 47.456 178.434 48.32 178.226 49.552H182.914C182.914 48.4 181.906 47.456 180.658 47.456ZM192.438 52.8C191.862 53.712 190.774 54.208 189.702 54.208C187.366 54.208 185.878 52.416 185.878 50.192C185.878 47.952 187.414 46.208 189.686 46.208C190.918 46.208 191.862 46.816 192.39 47.552H192.422V41.904H193.926V54H192.47V52.8H192.438ZM187.446 50.192C187.446 51.616 188.31 52.944 189.958 52.944C191.494 52.944 192.518 51.664 192.518 50.208C192.518 48.752 191.494 47.456 189.958 47.456C188.31 47.456 187.446 48.768 187.446 50.192ZM196.546 50.576V46.416H198.05V50.56C198.05 51.792 198.514 52.944 199.986 52.944C201.442 52.944 202.114 51.664 202.114 50.256V46.416H203.618V54H202.162V52.816H202.098C201.714 53.472 200.77 54.208 199.57 54.208C197.362 54.208 196.546 52.544 196.546 50.576ZM207.738 41.904V54H206.234V41.904H207.738ZM217.383 50.64H211.335C211.511 52.128 212.503 52.944 213.927 52.944C215.159 52.944 215.975 52.224 216.359 51.76L217.319 52.56C216.711 53.408 215.383 54.208 213.751 54.208C211.559 54.208 209.879 52.64 209.879 50.416C209.879 48.112 211.543 46.208 213.863 46.208C216.215 46.208 217.415 48.144 217.415 49.84C217.415 50.128 217.399 50.384 217.383 50.64ZM213.783 47.456C212.487 47.456 211.559 48.32 211.351 49.552H216.039C216.039 48.4 215.031 47.456 213.783 47.456ZM225.563 52.8C224.987 53.712 223.899 54.208 222.827 54.208C220.491 54.208 219.003 52.416 219.003 50.192C219.003 47.952 220.539 46.208 222.811 46.208C224.043 46.208 224.987 46.816 225.515 47.552H225.547V41.904H227.051V54H225.595V52.8H225.563ZM220.571 50.192C220.571 51.616 221.435 52.944 223.083 52.944C224.619 52.944 225.643 51.664 225.643 50.208C225.643 48.752 224.619 47.456 223.083 47.456C221.435 47.456 220.571 48.768 220.571 50.192ZM139.367 76.752V78H138.519C136.743 78 135.863 77.584 135.863 75.44V71.648H134.631V70.416H135.863V68.352H137.351V70.416H139.335V71.648H137.351V75.184C137.351 76.704 138.055 76.752 138.823 76.752H139.367ZM140.937 78V70.416H142.441V78H140.937ZM140.713 67.424C140.713 66.864 141.129 66.416 141.689 66.416C142.265 66.416 142.697 66.864 142.697 67.424C142.697 67.984 142.265 68.4 141.689 68.4C141.129 68.4 140.713 67.984 140.713 67.424ZM157.686 78H156.182V73.504C156.182 72.368 155.718 71.424 154.406 71.424C153.078 71.424 152.118 72.704 152.118 73.936V78H150.614V73.504C150.614 72.368 150.15 71.424 148.838 71.424C147.51 71.424 146.55 72.704 146.55 73.936V78H145.046V70.416H146.534V71.52H146.598C146.934 70.832 147.894 70.208 149.126 70.208C150.118 70.208 151.206 70.624 151.734 71.712H151.782C152.358 70.752 153.318 70.208 154.694 70.208C156.086 70.208 157.686 71.024 157.686 73.264V78ZM167.304 74.64H161.256C161.432 76.128 162.424 76.944 163.848 76.944C165.08 76.944 165.896 76.224 166.28 75.76L167.24 76.56C166.632 77.408 165.304 78.208 163.672 78.208C161.48 78.208 159.8 76.64 159.8 74.416C159.8 72.112 161.464 70.208 163.784 70.208C166.136 70.208 167.336 72.144 167.336 73.84C167.336 74.128 167.32 74.384 167.304 74.64ZM163.704 71.456C162.408 71.456 161.48 72.32 161.272 73.552H165.96C165.96 72.4 164.952 71.456 163.704 71.456ZM173.149 76.752V78H172.301C170.525 78 169.645 77.584 169.645 75.44V71.648H168.413V70.416H169.645V68.352H171.133V70.416H173.117V71.648H171.133V75.184C171.133 76.704 171.837 76.752 172.605 76.752H173.149ZM179.422 75.136V74.64C178.814 74.512 178.11 74.416 177.47 74.416C176.206 74.416 175.678 74.976 175.678 75.808C175.678 76.64 176.302 77.008 177.214 77.008C178.318 77.008 179.422 76.368 179.422 75.136ZM174.142 75.84C174.142 74.464 174.99 73.328 177.518 73.328C178.206 73.328 178.926 73.44 179.422 73.536V73.168C179.422 72.048 178.91 71.44 177.502 71.44C176.542 71.44 175.806 71.824 175.31 72.368L174.414 71.36C175.182 70.624 176.03 70.208 177.55 70.208C179.79 70.208 180.862 71.04 180.862 73.408V78H179.438V76.992H179.39C178.91 77.776 177.966 78.192 176.91 78.192C175.438 78.192 174.142 77.456 174.142 75.84ZM185.05 76.8H185.018V78H183.562V65.904H185.066V71.552H185.114C185.626 70.816 186.57 70.208 187.818 70.208C190.074 70.208 191.61 71.952 191.61 74.192C191.61 76.416 190.122 78.208 187.786 78.208C186.714 78.208 185.642 77.712 185.05 76.8ZM190.058 74.192C190.058 72.768 189.178 71.456 187.53 71.456C185.994 71.456 184.97 72.752 184.97 74.208C184.97 75.664 185.994 76.944 187.53 76.944C189.178 76.944 190.058 75.616 190.058 74.192ZM195.238 65.904V78H193.734V65.904H195.238ZM204.883 74.64H198.835C199.011 76.128 200.003 76.944 201.427 76.944C202.659 76.944 203.475 76.224 203.859 75.76L204.819 76.56C204.211 77.408 202.883 78.208 201.251 78.208C199.059 78.208 197.379 76.64 197.379 74.416C197.379 72.112 199.043 70.208 201.363 70.208C203.715 70.208 204.915 72.144 204.915 73.84C204.915 74.128 204.899 74.384 204.883 74.64ZM201.283 71.456C199.987 71.456 199.059 72.32 198.851 73.552H203.539C203.539 72.4 202.531 71.456 201.283 71.456ZM217.063 76.8C216.487 77.712 215.399 78.208 214.327 78.208C211.991 78.208 210.503 76.416 210.503 74.192C210.503 71.952 212.039 70.208 214.311 70.208C215.543 70.208 216.487 70.816 217.015 71.552H217.047V65.904H218.551V78H217.095V76.8H217.063ZM212.071 74.192C212.071 75.616 212.935 76.944 214.583 76.944C216.119 76.944 217.143 75.664 217.143 74.208C217.143 72.752 216.119 71.456 214.583 71.456C212.935 71.456 212.071 72.768 212.071 74.192ZM225.891 75.136V74.64C225.283 74.512 224.579 74.416 223.939 74.416C222.675 74.416 222.147 74.976 222.147 75.808C222.147 76.64 222.771 77.008 223.683 77.008C224.787 77.008 225.891 76.368 225.891 75.136ZM220.611 75.84C220.611 74.464 221.459 73.328 223.987 73.328C224.675 73.328 225.395 73.44 225.891 73.536V73.168C225.891 72.048 225.379 71.44 223.971 71.44C223.011 71.44 222.275 71.824 221.779 72.368L220.883 71.36C221.651 70.624 222.499 70.208 224.019 70.208C226.259 70.208 227.331 71.04 227.331 73.408V78H225.907V76.992H225.859C225.379 77.776 224.435 78.192 223.379 78.192C221.907 78.192 220.611 77.456 220.611 75.84ZM233.555 76.752V78H232.707C230.931 78 230.051 77.584 230.051 75.44V71.648H228.819V70.416H230.051V68.352H231.539V70.416H233.523V71.648H231.539V75.184C231.539 76.704 232.243 76.752 233.011 76.752H233.555ZM239.829 75.136V74.64C239.221 74.512 238.516 74.416 237.877 74.416C236.613 74.416 236.085 74.976 236.085 75.808C236.085 76.64 236.709 77.008 237.621 77.008C238.725 77.008 239.829 76.368 239.829 75.136ZM234.549 75.84C234.549 74.464 235.397 73.328 237.924 73.328C238.613 73.328 239.333 73.44 239.829 73.536V73.168C239.829 72.048 239.317 71.44 237.909 71.44C236.949 71.44 236.213 71.824 235.717 72.368L234.821 71.36C235.589 70.624 236.437 70.208 237.957 70.208C240.197 70.208 241.269 71.04 241.269 73.408V78H239.845V76.992H239.797C239.317 77.776 238.373 78.192 237.317 78.192C235.845 78.192 234.549 77.456 234.549 75.84Z" fill="#6E6F73"></path>
<path d="M203.25 85V84.25H201.75V85H202.5H203.25ZM417.53 103.03C417.823 102.737 417.823 102.263 417.53 101.97L412.757 97.1967C412.464 96.9038 411.99 96.9038 411.697 97.1967C411.404 97.4896 411.404 97.9645 411.697 98.2574L415.939 102.5L411.697 106.743C411.404 107.036 411.404 107.51 411.697 107.803C411.99 108.096 412.464 108.096 412.757 107.803L417.53 103.03ZM202.5 85H201.75V98.5H202.5H203.25V85H202.5ZM206.5 102.5V103.25H417V102.5V101.75H206.5V102.5ZM202.5 98.5H201.75C201.75 101.123 203.877 103.25 206.5 103.25V102.5V101.75C204.705 101.75 203.25 100.295 203.25 98.5H202.5Z" fill="#D9DAE8"></path>
<path d="M175.75 85V84.25H174.25V85H175H175.75ZM417.53 318.53C417.823 318.237 417.823 317.763 417.53 317.47L412.757 312.697C412.464 312.404 411.99 312.404 411.697 312.697C411.404 312.99 411.404 313.464 411.697 313.757L415.939 318L411.697 322.243C411.404 322.536 411.404 323.01 411.697 323.303C411.99 323.596 412.464 323.596 412.757 323.303L417.53 318.53ZM175 85H174.25V314H175H175.75V85H175ZM179 318V318.75H417V318V317.25H179V318ZM175 314H174.25C174.25 316.623 176.377 318.75 179 318.75V318V317.25C177.205 317.25 175.75 315.795 175.75 314H175Z" fill="#D9DAE8"></path>
<path d="M189.75 85V84.25H188.25V85H189H189.75ZM417.53 235.53C417.823 235.237 417.823 234.763 417.53 234.47L412.757 229.697C412.464 229.404 411.99 229.404 411.697 229.697C411.404 229.99 411.404 230.464 411.697 230.757L415.939 235L411.697 239.243C411.404 239.536 411.404 240.01 411.697 240.303C411.99 240.596 412.464 240.596 412.757 240.303L417.53 235.53ZM189 85H188.25V231H189H189.75V85H189ZM193 235V235.75H417V235V234.25H193V235ZM189 231H188.25C188.25 233.623 190.377 235.75 193 235.75V235V234.25C191.205 234.25 189.75 232.795 189.75 231H189Z" fill="#D9DAE8"></path>
<path d="M600 253.25C599.586 253.25 599.25 253.586 599.25 254C599.25 254.414 599.586 254.75 600 254.75V254V253.25ZM686.53 185.53C686.823 185.237 686.823 184.763 686.53 184.47L681.757 179.697C681.464 179.404 680.99 179.404 680.697 179.697C680.404 179.99 680.404 180.464 680.697 180.757L684.939 185L680.697 189.243C680.404 189.536 680.404 190.01 680.697 190.303C680.99 190.596 681.464 190.596 681.757 190.303L686.53 185.53ZM600 254V254.75H622V254V253.25H600V254ZM626 250H626.75V189H626H625.25V250H626ZM630 185V185.75H686V185V184.25H630V185ZM626 189H626.75C626.75 187.205 628.205 185.75 630 185.75V185V184.25C627.377 184.25 625.25 186.377 625.25 189H626ZM622 254V254.75C624.623 254.75 626.75 252.623 626.75 250H626H625.25C625.25 251.795 623.795 253.25 622 253.25V254Z" fill="#181C56"></path>
<path d="M600 110.75C599.586 110.75 599.25 110.414 599.25 110C599.25 109.586 599.586 109.25 600 109.25V110V110.75ZM686.53 167.47C686.823 167.763 686.823 168.237 686.53 168.53L681.757 173.303C681.464 173.596 680.99 173.596 680.697 173.303C680.404 173.01 680.404 172.536 680.697 172.243L684.939 168L680.697 163.757C680.404 163.464 680.404 162.99 680.697 162.697C680.99 162.404 681.464 162.404 681.757 162.697L686.53 167.47ZM600 110V109.25H648.46V110V110.75H600V110ZM652.46 114H653.21V164H652.46H651.71V114H652.46ZM656.46 168V167.25H686V168V168.75H656.46V168ZM652.46 164H653.21C653.21 165.795 654.665 167.25 656.46 167.25V168V168.75C653.837 168.75 651.71 166.623 651.71 164H652.46ZM648.46 110V109.25C651.083 109.25 653.21 111.377 653.21 114H652.46H651.71C651.71 112.205 650.255 110.75 648.46 110.75V110Z" fill="#181C56"></path>
<path d="M600 331.25C599.586 331.25 599.25 331.586 599.25 332C599.25 332.414 599.586 332.75 600 332.75V332V331.25ZM686.53 201.53C686.823 201.237 686.823 200.763 686.53 200.47L681.757 195.697C681.464 195.404 680.99 195.404 680.697 195.697C680.404 195.99 680.404 196.464 680.697 196.757L684.939 201L680.697 205.243C680.404 205.536 680.404 206.01 680.697 206.303C680.99 206.596 681.464 206.596 681.757 206.303L686.53 201.53ZM600 332V332.75H649.32V332V331.25H600V332ZM653.32 328H654.07V205H653.32H652.57V328H653.32ZM657.32 201V201.75H686V201V200.25H657.32V201ZM653.32 205H654.07C654.07 203.205 655.525 201.75 657.32 201.75V201V200.25C654.697 200.25 652.57 202.377 652.57 205H653.32ZM649.32 332V332.75C651.943 332.75 654.07 330.623 654.07 328H653.32H652.57C652.57 329.795 651.115 331.25 649.32 331.25V332Z" fill="#181C56"></path>
<path d="M418.53 248.53C418.823 248.237 418.823 247.763 418.53 247.47L413.757 242.697C413.464 242.404 412.99 242.404 412.697 242.697C412.404 242.99 412.404 243.464 412.697 243.757L416.939 248L412.697 252.243C412.404 252.536 412.404 253.01 412.697 253.303C412.99 253.596 413.464 253.596 413.757 253.303L418.53 248.53ZM249.25 445C249.25 445.414 249.586 445.75 250 445.75C250.414 445.75 250.75 445.414 250.75 445H250H249.25ZM418 248V247.25H254V248V248.75H418V248ZM250 252H249.25V445H250H250.75V252H250ZM254 248V247.25C251.377 247.25 249.25 249.377 249.25 252H250H250.75C250.75 250.205 252.205 248.75 254 248.75V248Z" fill="#181C56"></path>
<path d="M417.53 338.53C417.823 338.237 417.823 337.763 417.53 337.47L412.757 332.697C412.464 332.404 411.99 332.404 411.697 332.697C411.404 332.99 411.404 333.464 411.697 333.757L415.939 338L411.697 342.243C411.404 342.536 411.404 343.01 411.697 343.303C411.99 343.596 412.464 343.596 412.757 343.303L417.53 338.53ZM396.25 446C396.25 446.414 396.586 446.75 397 446.75C397.414 446.75 397.75 446.414 397.75 446H397H396.25ZM417 338V337.25H401V338V338.75H417V338ZM397 342H396.25V446H397H397.75V342H397ZM401 338V337.25C398.377 337.25 396.25 339.377 396.25 342H397H397.75C397.75 340.205 399.205 338.75 401 338.75V338Z" fill="#181C56"></path>
<path d="M418.53 263.53C418.823 263.237 418.823 262.763 418.53 262.47L413.757 257.697C413.464 257.404 412.99 257.404 412.697 257.697C412.404 257.99 412.404 258.464 412.697 258.757L416.939 263L412.697 267.243C412.404 267.536 412.404 268.01 412.697 268.303C412.99 268.596 413.464 268.596 413.757 268.303L418.53 263.53ZM376.25 446C376.25 446.414 376.586 446.75 377 446.75C377.414 446.75 377.75 446.414 377.75 446H377H376.25ZM418 263V262.25H381V263V263.75H418V263ZM377 267H376.25V446H377H377.75V267H377ZM381 263V262.25C378.377 262.25 376.25 264.377 376.25 267H377H377.75C377.75 265.205 379.205 263.75 381 263.75V263Z" fill="#181C56"></path>
<path d="M417.53 112.53C417.823 112.237 417.823 111.763 417.53 111.47L412.757 106.697C412.464 106.404 411.99 106.404 411.697 106.697C411.404 106.99 411.404 107.464 411.697 107.757L415.939 112L411.697 116.243C411.404 116.536 411.404 117.01 411.697 117.303C411.99 117.596 412.464 117.596 412.757 117.303L417.53 112.53ZM206.25 445C206.25 445.414 206.586 445.75 207 445.75C207.414 445.75 207.75 445.414 207.75 445H207H206.25ZM417 112V111.25H211V112V112.75H417V112ZM207 116H206.25V445H207H207.75V116H207ZM211 112V111.25C208.377 111.25 206.25 113.377 206.25 116H207H207.75C207.75 114.205 209.205 112.75 211 112.75V112Z" fill="#181C56"></path>
<path d="M510.53 210.47C510.237 210.177 509.763 210.177 509.47 210.47L504.697 215.243C504.404 215.536 504.404 216.01 504.697 216.303C504.99 216.596 505.464 216.596 505.757 216.303L510 212.061L514.243 216.303C514.536 216.596 515.01 216.596 515.303 216.303C515.596 216.01 515.596 215.536 515.303 215.243L510.53 210.47ZM509.47 224.53C509.763 224.823 510.237 224.823 510.53 224.53L515.303 219.757C515.596 219.464 515.596 218.99 515.303 218.697C515.01 218.404 514.536 218.404 514.243 218.697L510 222.939L505.757 218.697C505.464 218.404 504.99 218.404 504.697 218.697C504.404 218.99 504.404 219.464 504.697 219.757L509.47 224.53ZM510 211H509.25V224H510H510.75V211H510Z" fill="#181C56"></path>
<path d="M869 162.25C868.586 162.25 868.25 162.586 868.25 163C868.25 163.414 868.586 163.75 869 163.75V163V162.25ZM896.53 163.53C896.823 163.237 896.823 162.763 896.53 162.47L891.757 157.697C891.464 157.404 890.99 157.404 890.697 157.697C890.404 157.99 890.404 158.464 890.697 158.757L894.939 163L890.697 167.243C890.404 167.536 890.404 168.01 890.697 168.303C890.99 168.596 891.464 168.596 891.757 168.303L896.53 163.53ZM869 163V163.75H896V163V162.25H869V163Z" fill="#181C56"></path>
<path d="M869 178.25C868.586 178.25 868.25 178.586 868.25 179C868.25 179.414 868.586 179.75 869 179.75V179V178.25ZM896.53 179.53C896.823 179.237 896.823 178.763 896.53 178.47L891.757 173.697C891.464 173.404 890.99 173.404 890.697 173.697C890.404 173.99 890.404 174.464 890.697 174.757L894.939 179L890.697 183.243C890.404 183.536 890.404 184.01 890.697 184.303C890.99 184.596 891.464 184.596 891.757 184.303L896.53 179.53ZM869 179V179.75H896V179V178.25H869V179Z" fill="#181C56"></path>
<path d="M869 195.25C868.586 195.25 868.25 195.586 868.25 196C868.25 196.414 868.586 196.75 869 196.75V196V195.25ZM896.53 196.53C896.823 196.237 896.823 195.763 896.53 195.47L891.757 190.697C891.464 190.404 890.99 190.404 890.697 190.697C890.404 190.99 890.404 191.464 890.697 191.757L894.939 196L890.697 200.243C890.404 200.536 890.404 201.01 890.697 201.303C890.99 201.596 891.464 201.596 891.757 201.303L896.53 196.53ZM869 196V196.75H896V196V195.25H869V196Z" fill="#181C56"></path>
<path d="M570 300.819C570 294.192 575.373 288.819 582 288.819V288.819C588.627 288.819 594 294.192 594 300.819V300.819C594 307.447 588.627 312.819 582 312.819V312.819C575.373 312.819 570 307.447 570 300.819V300.819Z" fill="#5AC39A"></path>
<path d="M580.288 297.235L579.508 297.979C578.908 297.355 578.344 297.151 577.756 297.151C576.664 297.151 576.28 297.775 576.28 298.315C576.28 300.163 580.744 299.623 580.744 302.467C580.744 303.895 579.448 305.035 577.78 305.035C576.1 305.035 575.116 303.883 575.008 303.751L575.824 302.959C576.412 303.619 577.096 303.979 577.852 303.979C578.896 303.979 579.58 303.319 579.58 302.563C579.58 300.631 575.116 301.207 575.116 298.447C575.116 297.211 576.124 296.107 577.744 296.107C578.692 296.107 579.688 296.479 580.288 297.235ZM583.388 296.323L585.428 299.491L587.444 296.323H588.836L586.124 300.343L589.208 304.819H587.708L585.38 301.243L583.1 304.819H581.636L584.672 300.319L581.936 296.323H583.388Z" fill="#181C56"></path>
<path d="M653 243.569C659.213 243.569 664.25 248.606 664.25 254.819C664.25 261.033 659.213 266.069 653 266.069C646.787 266.069 641.75 261.033 641.75 254.819C641.75 248.606 646.787 243.569 653 243.569Z" fill="white"></path>
<path d="M653 243.569C659.213 243.569 664.25 248.606 664.25 254.819C664.25 261.033 659.213 266.069 653 266.069C646.787 266.069 641.75 261.033 641.75 254.819C641.75 248.606 646.787 243.569 653 243.569Z" stroke="#181C56" stroke-width="1.5"></path>
<path d="M651.288 251.235L650.508 251.979C649.908 251.355 649.344 251.151 648.756 251.151C647.664 251.151 647.28 251.775 647.28 252.315C647.28 254.163 651.744 253.623 651.744 256.467C651.744 257.895 650.448 259.035 648.78 259.035C647.1 259.035 646.116 257.883 646.008 257.751L646.824 256.959C647.412 257.619 648.096 257.979 648.852 257.979C649.896 257.979 650.58 257.319 650.58 256.563C650.58 254.631 646.116 255.207 646.116 252.447C646.116 251.211 647.124 250.107 648.744 250.107C649.692 250.107 650.688 250.479 651.288 251.235ZM654.388 250.323L656.428 253.491L658.444 250.323H659.836L657.124 254.343L660.208 258.819H658.708L656.38 255.243L654.1 258.819H652.636L655.672 254.319L652.936 250.323H654.388Z" fill="#181C56"></path>
<path d="M625 174.569C631.213 174.569 636.25 179.606 636.25 185.819C636.25 192.033 631.213 197.069 625 197.069C618.787 197.069 613.75 192.033 613.75 185.819C613.75 179.606 618.787 174.569 625 174.569Z" fill="white"></path>
<path d="M625 174.569C631.213 174.569 636.25 179.606 636.25 185.819C636.25 192.033 631.213 197.069 625 197.069C618.787 197.069 613.75 192.033 613.75 185.819C613.75 179.606 618.787 174.569 625 174.569Z" stroke="#181C56" stroke-width="1.5"></path>
<path d="M624.757 189.819H618.889V181.323H624.673V182.367H620.077V184.983H623.821V186.003H620.077V188.763H624.757V189.819ZM629.319 182.367V189.819H628.131V182.367H625.407V181.323H632.043V182.367H629.319Z" fill="#181C56"></path>
<path d="M653 121.569C659.213 121.569 664.25 126.606 664.25 132.819C664.25 139.033 659.213 144.069 653 144.069C646.787 144.069 641.75 139.033 641.75 132.819C641.75 126.606 646.787 121.569 653 121.569Z" fill="white"></path>
<path d="M653 121.569C659.213 121.569 664.25 126.606 664.25 132.819C664.25 139.033 659.213 144.069 653 144.069C646.787 144.069 641.75 139.033 641.75 132.819C641.75 126.606 646.787 121.569 653 121.569Z" stroke="#181C56" stroke-width="1.5"></path>
<path d="M645.026 128.323L647.582 135.283H647.618L650.174 128.323H651.458L648.122 136.819H647.018L643.706 128.323H645.026ZM654.31 128.323L656.854 134.851H656.878L659.386 128.323H661.234V136.819H660.046V129.715H660.022L657.202 136.819H656.446L653.638 129.715H653.614V136.819H652.462V128.323H654.31Z" fill="#181C56"></path>
<path d="M194 22.8193C194 16.1919 199.373 10.8193 206 10.8193V10.8193C212.627 10.8193 218 16.1919 218 22.8193V22.8193C218 29.4468 212.627 34.8193 206 34.8193V34.8193C199.373 34.8193 194 29.4468 194 22.8193V22.8193Z" fill="#5AC39A"></path>
<path d="M204.288 19.2353L203.508 19.9793C202.908 19.3553 202.344 19.1513 201.756 19.1513C200.664 19.1513 200.28 19.7753 200.28 20.3153C200.28 22.1633 204.744 21.6233 204.744 24.4673C204.744 25.8953 203.448 27.0353 201.78 27.0353C200.1 27.0353 199.116 25.8833 199.008 25.7513L199.824 24.9593C200.412 25.6193 201.096 25.9793 201.852 25.9793C202.896 25.9793 203.58 25.3193 203.58 24.5633C203.58 22.6313 199.116 23.2073 199.116 20.4473C199.116 19.2113 200.124 18.1073 201.744 18.1073C202.692 18.1073 203.688 18.4793 204.288 19.2353ZM207.388 18.3233L209.428 21.4913L211.444 18.3233H212.836L210.124 22.3433L213.208 26.8193H211.708L209.38 23.2433L207.1 26.8193H205.636L208.672 22.3193L205.936 18.3233H207.388Z" fill="#181C56"></path>
<path d="M570 150.819C570 144.192 575.373 138.819 582 138.819V138.819C588.627 138.819 594 144.192 594 150.819V150.819C594 157.447 588.627 162.819 582 162.819V162.819C575.373 162.819 570 157.447 570 150.819V150.819Z" fill="#64B3E7"></path>
<path d="M581.757 154.819H575.889V146.323H581.673V147.367H577.077V149.983H580.821V151.003H577.077V153.763H581.757V154.819ZM586.319 147.367V154.819H585.131V147.367H582.407V146.323H589.043V147.367H586.319Z" fill="#181C56"></path>
<path d="M221.972 22.8193C221.972 16.1919 227.344 10.8193 233.972 10.8193V10.8193C240.599 10.8193 245.972 16.1919 245.972 22.8193V22.8193C245.972 29.4468 240.599 34.8193 233.972 34.8193V34.8193C227.344 34.8193 221.972 29.4468 221.972 22.8193V22.8193Z" fill="#64B3E7"></path>
<path d="M233.729 26.8193H227.861V18.3233H233.645V19.3673H229.049V21.9833H232.793V23.0033H229.049V25.7633H233.729V26.8193ZM238.29 19.3673V26.8193H237.102V19.3673H234.378V18.3233H241.014V19.3673H238.29Z" fill="#181C56"></path>
<path d="M260 441.819C260 435.192 265.373 429.819 272 429.819V429.819C278.627 429.819 284 435.192 284 441.819V441.819C284 448.447 278.627 453.819 272 453.819V453.819C265.373 453.819 260 448.447 260 441.819V441.819Z" fill="#64B3E7"></path>
<path d="M271.757 445.819H265.889V437.323H271.673V438.367H267.077V440.983H270.821V442.003H267.077V444.763H271.757V445.819ZM276.319 438.367V445.819H275.131V438.367H272.407V437.323H279.043V438.367H276.319Z" fill="#181C56"></path>
<path d="M570 224.819C570 218.192 575.373 212.819 582 212.819V212.819C588.627 212.819 594 218.192 594 224.819V224.819C594 231.447 588.627 236.819 582 236.819V236.819C575.373 236.819 570 231.447 570 224.819V224.819Z" fill="#64B3E7"></path>
<path d="M581.757 228.819H575.889V220.323H581.673V221.367H577.077V223.983H580.821V225.003H577.077V227.763H581.757V228.819ZM586.319 221.367V228.819H585.131V221.367H582.407V220.323H589.043V221.367H586.319Z" fill="#181C56"></path>
<path d="M288.937 441.819C288.937 435.192 294.309 429.819 300.937 429.819V429.819C307.564 429.819 312.937 435.192 312.937 441.819V441.819C312.937 448.447 307.564 453.819 300.937 453.819V453.819C294.309 453.819 288.937 448.447 288.937 441.819V441.819Z" fill="#FFE082"></path>
<path d="M292.963 437.323L295.519 444.283H295.555L298.111 437.323H299.395L296.059 445.819H294.955L291.643 437.323H292.963ZM302.246 437.323L304.79 443.851H304.814L307.322 437.323H309.17V445.819H307.982V438.715H307.958L305.138 445.819H304.382L301.574 438.715H301.55V445.819H300.398V437.323H302.246Z" fill="#181C56"></path>
<path d="M570 74.8193C570 68.1919 575.373 62.8193 582 62.8193V62.8193C588.627 62.8193 594 68.1919 594 74.8193V74.8193C594 81.4468 588.627 86.8193 582 86.8193V86.8193C575.373 86.8193 570 81.4468 570 74.8193V74.8193Z" fill="#FFE082"></path>
<path d="M574.026 70.3233L576.582 77.2833H576.618L579.174 70.3233H580.458L577.122 78.8193H576.018L572.706 70.3233H574.026ZM583.31 70.3233L585.854 76.8513H585.878L588.386 70.3233H590.234V78.8193H589.046V71.7153H589.022L586.202 78.8193H585.446L582.638 71.7153H582.614V78.8193H581.462V70.3233H583.31Z" fill="#181C56"></path>
<path d="M249.944 22.8193C249.944 16.1919 255.317 10.8193 261.944 10.8193V10.8193C268.572 10.8193 273.944 16.1919 273.944 22.8193V22.8193C273.944 29.4468 268.572 34.8193 261.944 34.8193V34.8193C255.317 34.8193 249.944 29.4468 249.944 22.8193V22.8193Z" fill="#FFE082"></path>
<path d="M253.971 18.3233L256.527 25.2833H256.563L259.119 18.3233H260.403L257.067 26.8193H255.963L252.651 18.3233H253.971ZM263.254 18.3233L265.798 24.8513H265.822L268.33 18.3233H270.178V26.8193H268.99V19.7153H268.966L266.146 26.8193H265.39L262.582 19.7153H262.558V26.8193H261.406V18.3233H263.254Z" fill="#181C56"></path>
<path d="M478 441.819C478 435.192 483.373 429.819 490 429.819V429.819C496.627 429.819 502 435.192 502 441.819V441.819C502 448.447 496.627 453.819 490 453.819V453.819C483.373 453.819 478 448.447 478 441.819V441.819Z" fill="#5AC39A"></path>
<path d="M488.288 438.235L487.508 438.979C486.908 438.355 486.344 438.151 485.756 438.151C484.664 438.151 484.28 438.775 484.28 439.315C484.28 441.163 488.744 440.623 488.744 443.467C488.744 444.895 487.448 446.035 485.78 446.035C484.1 446.035 483.116 444.883 483.008 444.751L483.824 443.959C484.412 444.619 485.096 444.979 485.852 444.979C486.896 444.979 487.58 444.319 487.58 443.563C487.58 441.631 483.116 442.207 483.116 439.447C483.116 438.211 484.124 437.107 485.744 437.107C486.692 437.107 487.688 437.479 488.288 438.235ZM491.388 437.323L493.428 440.491L495.444 437.323H496.836L494.124 441.343L497.208 445.819H495.708L493.38 442.243L491.1 445.819H489.636L492.672 441.319L489.936 437.323H491.388Z" fill="#181C56"></path>
<path d="M506.937 441.819C506.937 435.192 512.309 429.819 518.937 429.819V429.819C525.564 429.819 530.937 435.192 530.937 441.819V441.819C530.937 448.447 525.564 453.819 518.937 453.819V453.819C512.309 453.819 506.937 448.447 506.937 441.819V441.819Z" fill="#64B3E7"></path>
<path d="M518.694 445.819H512.826V437.323H518.61V438.367H514.014V440.983H517.758V442.003H514.014V444.763H518.694V445.819ZM523.255 438.367V445.819H522.067V438.367H519.343V437.323H525.979V438.367H523.255Z" fill="#181C56"></path>
</svg>